<svg id="visual" viewBox="0 0 3840 8000" width="3840" height="8000" xmlns="http://www.w3.org/2000/svg" xmlns:xlink="http://www.w3.org/1999/xlink" version="1.1"><g stroke-width="1" stroke-linejoin="bevel"><path d="M2098.3 3806.5L2098.3 3356.4L1688.7 3772.5Z" fill="#526675" stroke="#526675"></path><path d="M2098.3 3356.4L1674.7 3347.4L1688.7 3772.5Z" fill="#5f7481" stroke="#5f7481"></path><path d="M2098.3 3356.4L1701.7 2970.4L1674.7 3347.4Z" fill="#556977" stroke="#556977"></path><path d="M2098.3 3806.5L2544 3371.4L2098.3 3356.4Z" fill="#5a6e7c" stroke="#5a6e7c"></path><path d="M2533 3812.5L2544 3371.4L2098.3 3806.5Z" fill="#5f7481" stroke="#5f7481"></path><path d="M2098.3 3356.4L2138.3 2927.4L1701.7 2970.4Z" fill="#617783" stroke="#617783"></path><path d="M1243 2986.4L1260 3352.4L1674.7 3347.4Z" fill="#5f7481" stroke="#5f7481"></path><path d="M1674.7 3347.4L1260 3352.4L1688.7 3772.5Z" fill="#69808b" stroke="#69808b"></path><path d="M2538 2955.4L2138.3 2927.4L2098.3 3356.4Z" fill="#556977" stroke="#556977"></path><path d="M1270 4170.5L1700.7 4244.5L1688.7 3772.5Z" fill="#526675" stroke="#526675"></path><path d="M1688.7 3772.5L1700.7 4244.5L2098.3 3806.5Z" fill="#526675" stroke="#526675"></path><path d="M2098.3 3806.5L2157.3 4232.5L2533 3812.5Z" fill="#69808b" stroke="#69808b"></path><path d="M1700.7 4244.5L2157.3 4232.5L2098.3 3806.5Z" fill="#677d88" stroke="#677d88"></path><path d="M1260 3352.4L1251 3817.5L1688.7 3772.5Z" fill="#677d88" stroke="#677d88"></path><path d="M1251 3817.5L1270 4170.5L1688.7 3772.5Z" fill="#677d88" stroke="#677d88"></path><path d="M2157.3 4232.5L2551 4187.5L2533 3812.5Z" fill="#5a6e7c" stroke="#5a6e7c"></path><path d="M2979.7 3755.5L2962.7 3370.4L2544 3371.4Z" fill="#5c717f" stroke="#5c717f"></path><path d="M2544 3371.4L2538 2955.4L2098.3 3356.4Z" fill="#6c838d" stroke="#6c838d"></path><path d="M1305 2517.3L1243 2986.4L1701.7 2970.4Z" fill="#556977" stroke="#556977"></path><path d="M1701.7 2970.4L1243 2986.4L1674.7 3347.4Z" fill="#526675" stroke="#526675"></path><path d="M1260 3352.4L882.3 3385.4L1251 3817.5Z" fill="#69808b" stroke="#69808b"></path><path d="M1270 4170.5L1671.7 4594.6L1700.7 4244.5Z" fill="#526675" stroke="#526675"></path><path d="M1700.7 4244.5L1671.7 4594.6L2157.3 4232.5Z" fill="#556977" stroke="#556977"></path><path d="M2157.3 4232.5L2595 4607.6L2551 4187.5Z" fill="#5c717f" stroke="#5c717f"></path><path d="M1243 2986.4L882.3 3385.4L1260 3352.4Z" fill="#5a6e7c" stroke="#5a6e7c"></path><path d="M1251 3817.5L878.3 3776.5L1270 4170.5Z" fill="#69808b" stroke="#69808b"></path><path d="M882.3 3385.4L878.3 3776.5L1251 3817.5Z" fill="#677d88" stroke="#677d88"></path><path d="M1270 4170.5L1308 4657.6L1671.7 4594.6Z" fill="#677d88" stroke="#677d88"></path><path d="M2979.7 3755.5L2544 3371.4L2533 3812.5Z" fill="#617783" stroke="#617783"></path><path d="M2544 3371.4L2972.7 2982.4L2538 2955.4Z" fill="#5a6e7c" stroke="#5a6e7c"></path><path d="M2153.3 2486.3L1682.7 2524.3L2138.3 2927.4Z" fill="#576c7a" stroke="#576c7a"></path><path d="M2138.3 2927.4L1682.7 2524.3L1701.7 2970.4Z" fill="#677d88" stroke="#677d88"></path><path d="M2551 4187.5L2979.7 3755.5L2533 3812.5Z" fill="#5a6e7c" stroke="#5a6e7c"></path><path d="M1671.7 4594.6L2158.3 4653.6L2157.3 4232.5Z" fill="#617783" stroke="#617783"></path><path d="M2551 4187.5L2980.7 4244.5L2979.7 3755.5Z" fill="#5c717f" stroke="#5c717f"></path><path d="M2526 2487.3L2138.3 2927.4L2538 2955.4Z" fill="#5f7481" stroke="#5f7481"></path><path d="M2526 2487.3L2153.3 2486.3L2138.3 2927.4Z" fill="#69808b" stroke="#69808b"></path><path d="M3393.3 2942.4L2972.7 2982.4L2962.7 3370.4Z" fill="#526675" stroke="#526675"></path><path d="M2962.7 3370.4L2972.7 2982.4L2544 3371.4Z" fill="#5a6e7c" stroke="#5a6e7c"></path><path d="M1293 2121.3L1305 2517.3L1682.7 2524.3Z" fill="#556977" stroke="#556977"></path><path d="M1682.7 2524.3L1305 2517.3L1701.7 2970.4Z" fill="#5f7481" stroke="#5f7481"></path><path d="M1243 2986.4L852.3 2933.4L882.3 3385.4Z" fill="#69808b" stroke="#69808b"></path><path d="M2158.3 4653.6L2595 4607.6L2157.3 4232.5Z" fill="#5c717f" stroke="#5c717f"></path><path d="M852.3 4670.6L1308 4657.6L1270 4170.5Z" fill="#526675" stroke="#526675"></path><path d="M1670.7 5057.6L2139.3 5053.6L2158.3 4653.6Z" fill="#5a6e7c" stroke="#5a6e7c"></path><path d="M1305 2517.3L852.3 2933.4L1243 2986.4Z" fill="#5a6e7c" stroke="#5a6e7c"></path><path d="M434.7 3811.5L817.3 4211.5L878.3 3776.5Z" fill="#556977" stroke="#556977"></path><path d="M2998.7 2538.3L2526 2487.3L2538 2955.4Z" fill="#576c7a" stroke="#576c7a"></path><path d="M2595 4607.6L2980.7 4244.5L2551 4187.5Z" fill="#617783" stroke="#617783"></path><path d="M459.7 3351.4L878.3 3776.5L882.3 3385.4Z" fill="#576c7a" stroke="#576c7a"></path><path d="M878.3 3776.5L817.3 4211.5L1270 4170.5Z" fill="#556977" stroke="#556977"></path><path d="M3003.7 5013.6L2946.7 4596.6L2595 4607.6Z" fill="#5f7481" stroke="#5f7481"></path><path d="M2595 4607.6L2946.7 4596.6L2980.7 4244.5Z" fill="#5a6e7c" stroke="#5a6e7c"></path><path d="M852.3 2933.4L459.7 3351.4L882.3 3385.4Z" fill="#6c838d" stroke="#6c838d"></path><path d="M1670.7 5057.6L2158.3 4653.6L1671.7 4594.6Z" fill="#6c838d" stroke="#6c838d"></path><path d="M2158.3 4653.6L2590 5091.6L2595 4607.6Z" fill="#576c7a" stroke="#576c7a"></path><path d="M459.7 3351.4L434.7 3811.5L878.3 3776.5Z" fill="#5c717f" stroke="#5c717f"></path><path d="M2153.3 2070.3L1734.7 2097.3L2153.3 2486.3Z" fill="#647a86" stroke="#647a86"></path><path d="M2153.3 2486.3L1734.7 2097.3L1682.7 2524.3Z" fill="#6c838d" stroke="#6c838d"></path><path d="M1305 2517.3L814.3 2548.3L852.3 2933.4Z" fill="#647a86" stroke="#647a86"></path><path d="M1256 5079.6L1670.7 5057.6L1308 4657.6Z" fill="#5a6e7c" stroke="#5a6e7c"></path><path d="M1308 4657.6L1670.7 5057.6L1671.7 4594.6Z" fill="#5f7481" stroke="#5f7481"></path><path d="M841.3 2143.3L814.3 2548.3L1305 2517.3Z" fill="#617783" stroke="#617783"></path><path d="M852.3 2933.4L450.7 2985.4L459.7 3351.4Z" fill="#576c7a" stroke="#576c7a"></path><path d="M2972.7 2982.4L2998.7 2538.3L2538 2955.4Z" fill="#617783" stroke="#617783"></path><path d="M2526 2487.3L2153.3 2070.3L2153.3 2486.3Z" fill="#6c838d" stroke="#6c838d"></path><path d="M3393.3 2942.4L2998.7 2538.3L2972.7 2982.4Z" fill="#6c838d" stroke="#6c838d"></path><path d="M3425.3 3400.4L2962.7 3370.4L2979.7 3755.5Z" fill="#5a6e7c" stroke="#5a6e7c"></path><path d="M412.7 4619.6L852.3 4670.6L817.3 4211.5Z" fill="#69808b" stroke="#69808b"></path><path d="M817.3 4211.5L852.3 4670.6L1270 4170.5Z" fill="#69808b" stroke="#69808b"></path><path d="M3437.3 3805.5L2979.7 3755.5L2980.7 4244.5Z" fill="#5a6e7c" stroke="#5a6e7c"></path><path d="M3437.3 3805.5L3425.3 3400.4L2979.7 3755.5Z" fill="#5f7481" stroke="#5f7481"></path><path d="M2567 2100.3L2153.3 2070.3L2526 2487.3Z" fill="#5c717f" stroke="#5c717f"></path><path d="M3447.3 4236.5L3437.3 3805.5L2980.7 4244.5Z" fill="#6c838d" stroke="#6c838d"></path><path d="M814.3 2548.3L450.7 2985.4L852.3 2933.4Z" fill="#526675" stroke="#526675"></path><path d="M459.7 3351.4L0 3750.5L434.7 3811.5Z" fill="#677d88" stroke="#677d88"></path><path d="M1282 1653.2L1293 2121.3L1734.7 2097.3Z" fill="#526675" stroke="#526675"></path><path d="M1734.7 2097.3L1293 2121.3L1682.7 2524.3Z" fill="#5c717f" stroke="#5c717f"></path><path d="M3425.3 3400.4L3393.3 2942.4L2962.7 3370.4Z" fill="#677d88" stroke="#677d88"></path><path d="M2956.7 2127.3L2567 2100.3L2526 2487.3Z" fill="#5c717f" stroke="#5c717f"></path><path d="M434.7 3811.5L388.7 4173.5L817.3 4211.5Z" fill="#556977" stroke="#556977"></path><path d="M0 4174.5L388.7 4173.5L434.7 3811.5Z" fill="#5c717f" stroke="#5c717f"></path><path d="M852.3 4670.6L1256 5079.6L1308 4657.6Z" fill="#5c717f" stroke="#5c717f"></path><path d="M2549 5444.7L2590 5091.6L2139.3 5053.6Z" fill="#5a6e7c" stroke="#5a6e7c"></path><path d="M2155.3 5473.7L2139.3 5053.6L1675.7 5483.7Z" fill="#647a86" stroke="#647a86"></path><path d="M2139.3 5053.6L2590 5091.6L2158.3 4653.6Z" fill="#5f7481" stroke="#5f7481"></path><path d="M3377.3 4622.6L2980.7 4244.5L2946.7 4596.6Z" fill="#526675" stroke="#526675"></path><path d="M3377.3 4622.6L3447.3 4236.5L2980.7 4244.5Z" fill="#576c7a" stroke="#576c7a"></path><path d="M3396.3 2536.3L2956.7 2127.3L2998.7 2538.3Z" fill="#677d88" stroke="#677d88"></path><path d="M2998.7 2538.3L2956.7 2127.3L2526 2487.3Z" fill="#5f7481" stroke="#5f7481"></path><path d="M2533 1690.2L2109.3 1699.2L2153.3 2070.3Z" fill="#617783" stroke="#617783"></path><path d="M850.3 1648.2L841.3 2143.3L1293 2121.3Z" fill="#677d88" stroke="#677d88"></path><path d="M1293 2121.3L841.3 2143.3L1305 2517.3Z" fill="#6c838d" stroke="#6c838d"></path><path d="M814.3 2548.3L407.7 2548.3L450.7 2985.4Z" fill="#526675" stroke="#526675"></path><path d="M852.3 4670.6L836.3 5022.6L1256 5079.6Z" fill="#556977" stroke="#556977"></path><path d="M404.7 5013.6L836.3 5022.6L852.3 4670.6Z" fill="#6c838d" stroke="#6c838d"></path><path d="M3003.7 5013.6L3377.3 4622.6L2946.7 4596.6Z" fill="#576c7a" stroke="#576c7a"></path><path d="M2590 5091.6L3003.7 5013.6L2595 4607.6Z" fill="#617783" stroke="#617783"></path><path d="M3393.3 2942.4L3396.3 2536.3L2998.7 2538.3Z" fill="#617783" stroke="#617783"></path><path d="M3840 2542.3L3396.3 2536.3L3393.3 2942.4Z" fill="#6c838d" stroke="#6c838d"></path><path d="M388.7 4173.5L412.7 4619.6L817.3 4211.5Z" fill="#5f7481" stroke="#5f7481"></path><path d="M841.3 2143.3L407.7 2548.3L814.3 2548.3Z" fill="#526675" stroke="#526675"></path><path d="M0 3350.4L0 3750.5L459.7 3351.4Z" fill="#647a86" stroke="#647a86"></path><path d="M2533 1690.2L2153.3 2070.3L2567 2100.3Z" fill="#677d88" stroke="#677d88"></path><path d="M2153.3 2070.3L2109.3 1699.2L1734.7 2097.3Z" fill="#556977" stroke="#556977"></path><path d="M1675.7 5483.7L2139.3 5053.6L1670.7 5057.6Z" fill="#5f7481" stroke="#5f7481"></path><path d="M2590 5091.6L3007.7 5442.7L3003.7 5013.6Z" fill="#5c717f" stroke="#5c717f"></path><path d="M1675.7 5483.7L1670.7 5057.6L1256 5079.6Z" fill="#677d88" stroke="#677d88"></path><path d="M1264 5503.7L1675.7 5483.7L1256 5079.6Z" fill="#526675" stroke="#526675"></path><path d="M0 3350.4L459.7 3351.4L450.7 2985.4Z" fill="#556977" stroke="#556977"></path><path d="M388.7 4173.5L0 4606.6L412.7 4619.6Z" fill="#647a86" stroke="#647a86"></path><path d="M0 2958.4L0 3350.4L450.7 2985.4Z" fill="#647a86" stroke="#647a86"></path><path d="M2109.3 1699.2L1728.7 1656.2L1734.7 2097.3Z" fill="#526675" stroke="#526675"></path><path d="M3437.3 3805.5L3840 3775.5L3425.3 3400.4Z" fill="#617783" stroke="#617783"></path><path d="M3425.3 3400.4L3840 2984.4L3393.3 2942.4Z" fill="#617783" stroke="#617783"></path><path d="M3840 4183.5L3840 3775.5L3437.3 3805.5Z" fill="#677d88" stroke="#677d88"></path><path d="M3840 4183.5L3437.3 3805.5L3447.3 4236.5Z" fill="#617783" stroke="#617783"></path><path d="M3840 3775.5L3840 3362.4L3425.3 3400.4Z" fill="#5c717f" stroke="#5c717f"></path><path d="M2155.3 5473.7L2549 5444.7L2139.3 5053.6Z" fill="#6c838d" stroke="#6c838d"></path><path d="M3007.7 1720.2L2533 1690.2L2567 2100.3Z" fill="#647a86" stroke="#647a86"></path><path d="M2108.3 1223.2L1717.7 1243.2L1728.7 1656.2Z" fill="#617783" stroke="#617783"></path><path d="M3007.7 1720.2L2567 2100.3L2956.7 2127.3Z" fill="#556977" stroke="#556977"></path><path d="M0 3750.5L0 4174.5L434.7 3811.5Z" fill="#677d88" stroke="#677d88"></path><path d="M407.7 2548.3L0 2958.4L450.7 2985.4Z" fill="#617783" stroke="#617783"></path><path d="M3840 3362.4L3840 2984.4L3425.3 3400.4Z" fill="#5a6e7c" stroke="#5a6e7c"></path><path d="M3840 4665.6L3447.3 4236.5L3377.3 4622.6Z" fill="#5c717f" stroke="#5c717f"></path><path d="M3840 4665.6L3840 4183.5L3447.3 4236.5Z" fill="#6c838d" stroke="#6c838d"></path><path d="M838.3 5509.7L1256 5079.6L836.3 5022.6Z" fill="#69808b" stroke="#69808b"></path><path d="M838.3 5509.7L1264 5503.7L1256 5079.6Z" fill="#5f7481" stroke="#5f7481"></path><path d="M1675.7 5483.7L2129.3 5914.7L2155.3 5473.7Z" fill="#576c7a" stroke="#576c7a"></path><path d="M1728.7 1656.2L1282 1653.2L1734.7 2097.3Z" fill="#6c838d" stroke="#6c838d"></path><path d="M841.3 2143.3L413.7 2085.3L407.7 2548.3Z" fill="#677d88" stroke="#677d88"></path><path d="M407.7 2548.3L0 2529.3L0 2958.4Z" fill="#5a6e7c" stroke="#5a6e7c"></path><path d="M0 4606.6L404.7 5013.6L412.7 4619.6Z" fill="#5c717f" stroke="#5c717f"></path><path d="M412.7 4619.6L404.7 5013.6L852.3 4670.6Z" fill="#69808b" stroke="#69808b"></path><path d="M3007.7 5442.7L3431.3 5033.6L3003.7 5013.6Z" fill="#576c7a" stroke="#576c7a"></path><path d="M3003.7 5013.6L3431.3 5033.6L3377.3 4622.6Z" fill="#5a6e7c" stroke="#5a6e7c"></path><path d="M3840 2115.3L3401.3 2084.3L3396.3 2536.3Z" fill="#526675" stroke="#526675"></path><path d="M3396.3 2536.3L3401.3 2084.3L2956.7 2127.3Z" fill="#556977" stroke="#556977"></path><path d="M850.3 1648.2L413.7 2085.3L841.3 2143.3Z" fill="#556977" stroke="#556977"></path><path d="M2549 5444.7L3007.7 5442.7L2590 5091.6Z" fill="#6c838d" stroke="#6c838d"></path><path d="M3014.7 5864.7L3007.7 5442.7L2549 5444.7Z" fill="#6c838d" stroke="#6c838d"></path><path d="M3401.3 2084.3L3007.7 1720.2L2956.7 2127.3Z" fill="#69808b" stroke="#69808b"></path><path d="M0 4174.5L0 4606.6L388.7 4173.5Z" fill="#69808b" stroke="#69808b"></path><path d="M0 2141.3L0 2529.3L407.7 2548.3Z" fill="#69808b" stroke="#69808b"></path><path d="M3840 2984.4L3840 2542.3L3393.3 2942.4Z" fill="#556977" stroke="#556977"></path><path d="M834.3 1300.2L850.3 1648.2L1282 1653.2Z" fill="#576c7a" stroke="#576c7a"></path><path d="M1282 1653.2L850.3 1648.2L1293 2121.3Z" fill="#5f7481" stroke="#5f7481"></path><path d="M434.7 5450.7L838.3 5509.7L836.3 5022.6Z" fill="#556977" stroke="#556977"></path><path d="M434.7 5450.7L836.3 5022.6L404.7 5013.6Z" fill="#677d88" stroke="#677d88"></path><path d="M3431.3 5033.6L3840 4665.6L3377.3 4622.6Z" fill="#5a6e7c" stroke="#5a6e7c"></path><path d="M3840 5086.6L3840 4665.6L3431.3 5033.6Z" fill="#556977" stroke="#556977"></path><path d="M1307 5862.7L1675.7 5483.7L1264 5503.7Z" fill="#5f7481" stroke="#5f7481"></path><path d="M1307 5862.7L1671.7 5878.7L1675.7 5483.7Z" fill="#6c838d" stroke="#6c838d"></path><path d="M2155.3 5473.7L2563 5910.7L2549 5444.7Z" fill="#677d88" stroke="#677d88"></path><path d="M1671.7 5878.7L2129.3 5914.7L1675.7 5483.7Z" fill="#6c838d" stroke="#6c838d"></path><path d="M2108.3 1223.2L1728.7 1656.2L2109.3 1699.2Z" fill="#617783" stroke="#617783"></path><path d="M1728.7 1656.2L1283 1263.2L1282 1653.2Z" fill="#617783" stroke="#617783"></path><path d="M2108.3 1223.2L2109.3 1699.2L2533 1690.2Z" fill="#69808b" stroke="#69808b"></path><path d="M840.3 5897.7L1307 5862.7L1264 5503.7Z" fill="#6c838d" stroke="#6c838d"></path><path d="M1666.7 6353.8L2126.3 6342.8L2129.3 5914.7Z" fill="#69808b" stroke="#69808b"></path><path d="M2569 1240.2L2108.3 1223.2L2533 1690.2Z" fill="#526675" stroke="#526675"></path><path d="M0 5053.6L434.7 5450.7L404.7 5013.6Z" fill="#69808b" stroke="#69808b"></path><path d="M838.3 5509.7L840.3 5897.7L1264 5503.7Z" fill="#556977" stroke="#556977"></path><path d="M0 1665.2L0 2141.3L413.7 2085.3Z" fill="#5a6e7c" stroke="#5a6e7c"></path><path d="M413.7 2085.3L0 2141.3L407.7 2548.3Z" fill="#576c7a" stroke="#576c7a"></path><path d="M1717.7 1243.2L1283 1263.2L1728.7 1656.2Z" fill="#556977" stroke="#556977"></path><path d="M850.3 1648.2L393.7 1647.2L413.7 2085.3Z" fill="#5f7481" stroke="#5f7481"></path><path d="M1298 868.1L1283 1263.2L1717.7 1243.2Z" fill="#5f7481" stroke="#5f7481"></path><path d="M3421.3 5876.7L3445.3 5433.7L3007.7 5442.7Z" fill="#5c717f" stroke="#5c717f"></path><path d="M3007.7 5442.7L3445.3 5433.7L3431.3 5033.6Z" fill="#526675" stroke="#526675"></path><path d="M0 4606.6L0 5053.6L404.7 5013.6Z" fill="#647a86" stroke="#647a86"></path><path d="M2129.3 5914.7L2563 5910.7L2155.3 5473.7Z" fill="#5c717f" stroke="#5c717f"></path><path d="M3401.3 2084.3L3426.3 1696.2L3007.7 1720.2Z" fill="#6c838d" stroke="#6c838d"></path><path d="M2995.7 1280.2L2569 1240.2L2533 1690.2Z" fill="#6c838d" stroke="#6c838d"></path><path d="M3840 1710.2L3426.3 1696.2L3401.3 2084.3Z" fill="#5f7481" stroke="#5f7481"></path><path d="M3840 2542.3L3840 2115.3L3396.3 2536.3Z" fill="#5c717f" stroke="#5c717f"></path><path d="M2995.7 1280.2L2533 1690.2L3007.7 1720.2Z" fill="#69808b" stroke="#69808b"></path><path d="M3445.3 5433.7L3840 5086.6L3431.3 5033.6Z" fill="#556977" stroke="#556977"></path><path d="M433.7 1302.2L393.7 1647.2L850.3 1648.2Z" fill="#677d88" stroke="#677d88"></path><path d="M1283 1263.2L834.3 1300.2L1282 1653.2Z" fill="#526675" stroke="#526675"></path><path d="M2563 5910.7L3014.7 5864.7L2549 5444.7Z" fill="#6c838d" stroke="#6c838d"></path><path d="M3445.3 5433.7L3840 5453.7L3840 5086.6Z" fill="#677d88" stroke="#677d88"></path><path d="M3376.3 1271.2L2995.7 1280.2L3007.7 1720.2Z" fill="#556977" stroke="#556977"></path><path d="M458.7 5856.7L838.3 5509.7L434.7 5450.7Z" fill="#5c717f" stroke="#5c717f"></path><path d="M458.7 5856.7L840.3 5897.7L838.3 5509.7Z" fill="#647a86" stroke="#647a86"></path><path d="M1666.7 6353.8L2129.3 5914.7L1671.7 5878.7Z" fill="#556977" stroke="#556977"></path><path d="M0 5053.6L0 5463.7L434.7 5450.7Z" fill="#576c7a" stroke="#576c7a"></path><path d="M3840 2115.3L3840 1710.2L3401.3 2084.3Z" fill="#69808b" stroke="#69808b"></path><path d="M3426.3 1696.2L3376.3 1271.2L3007.7 1720.2Z" fill="#5a6e7c" stroke="#5a6e7c"></path><path d="M3421.3 5876.7L3840 5453.7L3445.3 5433.7Z" fill="#617783" stroke="#617783"></path><path d="M0 5463.7L458.7 5856.7L434.7 5450.7Z" fill="#5c717f" stroke="#5c717f"></path><path d="M393.7 1647.2L0 1665.2L413.7 2085.3Z" fill="#647a86" stroke="#647a86"></path><path d="M0 1241.2L0 1665.2L393.7 1647.2Z" fill="#526675" stroke="#526675"></path><path d="M462.7 814.1L433.7 1302.2L834.3 1300.2Z" fill="#617783" stroke="#617783"></path><path d="M834.3 1300.2L433.7 1302.2L850.3 1648.2Z" fill="#677d88" stroke="#677d88"></path><path d="M1298 868.1L834.3 1300.2L1283 1263.2Z" fill="#576c7a" stroke="#576c7a"></path><path d="M3840 1265.2L3376.3 1271.2L3426.3 1696.2Z" fill="#526675" stroke="#526675"></path><path d="M2143.3 803.1L2108.3 1223.2L2546 854.1Z" fill="#677d88" stroke="#677d88"></path><path d="M3014.7 5864.7L3421.3 5876.7L3007.7 5442.7Z" fill="#647a86" stroke="#647a86"></path><path d="M3435.3 6276.8L3421.3 5876.7L3014.7 5864.7Z" fill="#647a86" stroke="#647a86"></path><path d="M2143.3 803.1L1711.7 821.1L2108.3 1223.2Z" fill="#5f7481" stroke="#5f7481"></path><path d="M2108.3 1223.2L1711.7 821.1L1717.7 1243.2Z" fill="#576c7a" stroke="#576c7a"></path><path d="M2108.3 1223.2L2569 1240.2L2546 854.1Z" fill="#617783" stroke="#617783"></path><path d="M2129.3 5914.7L2566 6286.8L2563 5910.7Z" fill="#617783" stroke="#617783"></path><path d="M2563 5910.7L2996.7 6321.8L3014.7 5864.7Z" fill="#617783" stroke="#617783"></path><path d="M1666.7 6353.8L1671.7 5878.7L1251 6296.8Z" fill="#617783" stroke="#617783"></path><path d="M1671.7 5878.7L1307 5862.7L1251 6296.8Z" fill="#6c838d" stroke="#6c838d"></path><path d="M1711.7 821.1L1298 868.1L1717.7 1243.2Z" fill="#5f7481" stroke="#5f7481"></path><path d="M1251 6296.8L1307 5862.7L840.3 5897.7Z" fill="#526675" stroke="#526675"></path><path d="M2126.3 6342.8L2566 6286.8L2129.3 5914.7Z" fill="#69808b" stroke="#69808b"></path><path d="M2546 854.1L2569 1240.2L2985.7 845.1Z" fill="#556977" stroke="#556977"></path><path d="M885.3 6341.8L1251 6296.8L840.3 5897.7Z" fill="#5a6e7c" stroke="#5a6e7c"></path><path d="M2985.7 845.1L2569 1240.2L2995.7 1280.2Z" fill="#647a86" stroke="#647a86"></path><path d="M3386.3 860.1L2985.7 845.1L2995.7 1280.2Z" fill="#677d88" stroke="#677d88"></path><path d="M2573 435.1L2140.3 404.1L2143.3 803.1Z" fill="#5f7481" stroke="#5f7481"></path><path d="M3386.3 860.1L2995.7 1280.2L3376.3 1271.2Z" fill="#617783" stroke="#617783"></path><path d="M388.7 6277.8L840.3 5897.7L458.7 5856.7Z" fill="#6c838d" stroke="#6c838d"></path><path d="M388.7 6277.8L885.3 6341.8L840.3 5897.7Z" fill="#5f7481" stroke="#5f7481"></path><path d="M1287 6772.8L1737.7 6717.8L1666.7 6353.8Z" fill="#69808b" stroke="#69808b"></path><path d="M2544 6706.8L2996.7 6321.8L2566 6286.8Z" fill="#69808b" stroke="#69808b"></path><path d="M2566 6286.8L2996.7 6321.8L2563 5910.7Z" fill="#5f7481" stroke="#5f7481"></path><path d="M3421.3 5876.7L3840 5914.7L3840 5453.7Z" fill="#6c838d" stroke="#6c838d"></path><path d="M1298 868.1L830.3 806.1L834.3 1300.2Z" fill="#576c7a" stroke="#576c7a"></path><path d="M433.7 1302.2L0 1241.2L393.7 1647.2Z" fill="#556977" stroke="#556977"></path><path d="M1250 442.1L830.3 806.1L1298 868.1Z" fill="#5c717f" stroke="#5c717f"></path><path d="M1250 442.1L1298 868.1L1711.7 821.1Z" fill="#576c7a" stroke="#576c7a"></path><path d="M0 5463.7L0 5873.7L458.7 5856.7Z" fill="#677d88" stroke="#677d88"></path><path d="M3840 1710.2L3840 1265.2L3426.3 1696.2Z" fill="#5c717f" stroke="#5c717f"></path><path d="M462.7 814.1L0 1241.2L433.7 1302.2Z" fill="#677d88" stroke="#677d88"></path><path d="M3435.3 6276.8L3840 5914.7L3421.3 5876.7Z" fill="#617783" stroke="#617783"></path><path d="M3840 1265.2L3386.3 860.1L3376.3 1271.2Z" fill="#5c717f" stroke="#5c717f"></path><path d="M2573 435.1L2143.3 803.1L2546 854.1Z" fill="#5a6e7c" stroke="#5a6e7c"></path><path d="M0 5873.7L388.7 6277.8L458.7 5856.7Z" fill="#69808b" stroke="#69808b"></path><path d="M2996.7 6321.8L3435.3 6276.8L3014.7 5864.7Z" fill="#69808b" stroke="#69808b"></path><path d="M830.3 806.1L462.7 814.1L834.3 1300.2Z" fill="#5a6e7c" stroke="#5a6e7c"></path><path d="M1287 6772.8L1251 6296.8L875.3 6708.8Z" fill="#556977" stroke="#556977"></path><path d="M1287 6772.8L1666.7 6353.8L1251 6296.8Z" fill="#647a86" stroke="#647a86"></path><path d="M1666.7 6353.8L1737.7 6717.8L2126.3 6342.8Z" fill="#5f7481" stroke="#5f7481"></path><path d="M2126.3 6342.8L2544 6706.8L2566 6286.8Z" fill="#526675" stroke="#526675"></path><path d="M2996.7 6321.8L3398.3 6713.8L3435.3 6276.8Z" fill="#5f7481" stroke="#5f7481"></path><path d="M2573 435.1L2546 854.1L2985.7 845.1Z" fill="#576c7a" stroke="#576c7a"></path><path d="M2143.3 803.1L2140.3 404.1L1711.7 821.1Z" fill="#6c838d" stroke="#6c838d"></path><path d="M830.3 806.1L447.7 421.1L462.7 814.1Z" fill="#647a86" stroke="#647a86"></path><path d="M2151.3 6775.8L2544 6706.8L2126.3 6342.8Z" fill="#647a86" stroke="#647a86"></path><path d="M2140.3 404.1L1682.7 387.1L1711.7 821.1Z" fill="#647a86" stroke="#647a86"></path><path d="M1737.7 6717.8L2151.3 6775.8L2126.3 6342.8Z" fill="#576c7a" stroke="#576c7a"></path><path d="M1682.7 387.1L1250 442.1L1711.7 821.1Z" fill="#617783" stroke="#617783"></path><path d="M2998.7 451.1L2573 435.1L2985.7 845.1Z" fill="#69808b" stroke="#69808b"></path><path d="M875.3 6708.8L1251 6296.8L885.3 6341.8Z" fill="#5c717f" stroke="#5c717f"></path><path d="M1737.7 6717.8L2130.3 7146.9L2151.3 6775.8Z" fill="#5a6e7c" stroke="#5a6e7c"></path><path d="M463.7 6726.8L875.3 6708.8L885.3 6341.8Z" fill="#5f7481" stroke="#5f7481"></path><path d="M2547 7119.9L3011.7 6696.8L2544 6706.8Z" fill="#617783" stroke="#617783"></path><path d="M2544 6706.8L3011.7 6696.8L2996.7 6321.8Z" fill="#647a86" stroke="#647a86"></path><path d="M3435.3 6276.8L3840 6320.8L3840 5914.7Z" fill="#647a86" stroke="#647a86"></path><path d="M3386.3 860.1L2998.7 451.1L2985.7 845.1Z" fill="#556977" stroke="#556977"></path><path d="M2104.3 0L1741.7 0L2140.3 404.1Z" fill="#647a86" stroke="#647a86"></path><path d="M3415.3 439.1L2998.7 451.1L3386.3 860.1Z" fill="#5f7481" stroke="#5f7481"></path><path d="M0 5873.7L0 6291.8L388.7 6277.8Z" fill="#5f7481" stroke="#5f7481"></path><path d="M388.7 6277.8L463.7 6726.8L885.3 6341.8Z" fill="#6c838d" stroke="#6c838d"></path><path d="M3840 1265.2L3840 872.1L3386.3 860.1Z" fill="#556977" stroke="#556977"></path><path d="M0 452.1L0 834.1L462.7 814.1Z" fill="#576c7a" stroke="#576c7a"></path><path d="M462.7 814.1L0 834.1L0 1241.2Z" fill="#69808b" stroke="#69808b"></path><path d="M3398.3 6713.8L3840 6320.8L3435.3 6276.8Z" fill="#5f7481" stroke="#5f7481"></path><path d="M1250 442.1L869.3 391.1L830.3 806.1Z" fill="#677d88" stroke="#677d88"></path><path d="M1265 0L869.3 391.1L1250 442.1Z" fill="#5f7481" stroke="#5f7481"></path><path d="M0 6758.8L463.7 6726.8L388.7 6277.8Z" fill="#5a6e7c" stroke="#5a6e7c"></path><path d="M1313 7150.9L1683.7 7185.9L1287 6772.8Z" fill="#677d88" stroke="#677d88"></path><path d="M3002.7 7168.9L3398.3 6713.8L3011.7 6696.8Z" fill="#5c717f" stroke="#5c717f"></path><path d="M3011.7 6696.8L3398.3 6713.8L2996.7 6321.8Z" fill="#5a6e7c" stroke="#5a6e7c"></path><path d="M869.3 391.1L447.7 421.1L830.3 806.1Z" fill="#677d88" stroke="#677d88"></path><path d="M3840 872.1L3415.3 439.1L3386.3 860.1Z" fill="#526675" stroke="#526675"></path><path d="M2104.3 0L2140.3 404.1L2532 0Z" fill="#526675" stroke="#526675"></path><path d="M2140.3 404.1L1741.7 0L1682.7 387.1Z" fill="#647a86" stroke="#647a86"></path><path d="M1683.7 7185.9L1737.7 6717.8L1287 6772.8Z" fill="#5a6e7c" stroke="#5a6e7c"></path><path d="M1683.7 7185.9L2130.3 7146.9L1737.7 6717.8Z" fill="#5a6e7c" stroke="#5a6e7c"></path><path d="M2151.3 6775.8L2547 7119.9L2544 6706.8Z" fill="#647a86" stroke="#647a86"></path><path d="M2140.3 404.1L2573 435.1L2532 0Z" fill="#6c838d" stroke="#6c838d"></path><path d="M1682.7 387.1L1265 0L1250 442.1Z" fill="#526675" stroke="#526675"></path><path d="M869.3 391.1L440.7 0L447.7 421.1Z" fill="#6c838d" stroke="#6c838d"></path><path d="M2532 0L2573 435.1L2992.7 0Z" fill="#617783" stroke="#617783"></path><path d="M2130.3 7146.9L2547 7119.9L2151.3 6775.8Z" fill="#526675" stroke="#526675"></path><path d="M1313 7150.9L1287 6772.8L817.3 7187.9Z" fill="#617783" stroke="#617783"></path><path d="M2998.7 7538.9L3002.7 7168.9L2547 7119.9Z" fill="#5a6e7c" stroke="#5a6e7c"></path><path d="M817.3 7187.9L1287 6772.8L875.3 6708.8Z" fill="#6c838d" stroke="#6c838d"></path><path d="M2992.7 0L2573 435.1L2998.7 451.1Z" fill="#6c838d" stroke="#6c838d"></path><path d="M1741.7 0L1265 0L1682.7 387.1Z" fill="#5a6e7c" stroke="#5a6e7c"></path><path d="M0 0L0 452.1L447.7 421.1Z" fill="#6c838d" stroke="#6c838d"></path><path d="M447.7 421.1L0 452.1L462.7 814.1Z" fill="#6c838d" stroke="#6c838d"></path><path d="M0 6291.8L0 6758.8L388.7 6277.8Z" fill="#69808b" stroke="#69808b"></path><path d="M461.7 7124.9L817.3 7187.9L875.3 6708.8Z" fill="#647a86" stroke="#647a86"></path><path d="M3840 872.1L3840 403.1L3415.3 439.1Z" fill="#69808b" stroke="#69808b"></path><path d="M3415.3 439.1L2992.7 0L2998.7 451.1Z" fill="#677d88" stroke="#677d88"></path><path d="M3398.3 6713.8L3840 6761.8L3840 6320.8Z" fill="#5c717f" stroke="#5c717f"></path><path d="M3417.3 7144.9L3840 6761.8L3398.3 6713.8Z" fill="#556977" stroke="#556977"></path><path d="M1265 0L848.3 0L869.3 391.1Z" fill="#5f7481" stroke="#5f7481"></path><path d="M3428.3 0L2992.7 0L3415.3 439.1Z" fill="#6c838d" stroke="#6c838d"></path><path d="M2524 7573.9L2547 7119.9L2130.3 7146.9Z" fill="#5f7481" stroke="#5f7481"></path><path d="M2547 7119.9L3002.7 7168.9L3011.7 6696.8Z" fill="#617783" stroke="#617783"></path><path d="M461.7 7124.9L875.3 6708.8L463.7 6726.8Z" fill="#617783" stroke="#617783"></path><path d="M1301 7540.9L1727.7 7561.9L1683.7 7185.9Z" fill="#556977" stroke="#556977"></path><path d="M0 6758.8L461.7 7124.9L463.7 6726.8Z" fill="#526675" stroke="#526675"></path><path d="M3002.7 7168.9L3417.3 7144.9L3398.3 6713.8Z" fill="#5f7481" stroke="#5f7481"></path><path d="M848.3 0L440.7 0L869.3 391.1Z" fill="#5a6e7c" stroke="#5a6e7c"></path><path d="M3840 403.1L3428.3 0L3415.3 439.1Z" fill="#526675" stroke="#526675"></path><path d="M1301 7540.9L1683.7 7185.9L1313 7150.9Z" fill="#556977" stroke="#556977"></path><path d="M1683.7 7185.9L1727.7 7561.9L2130.3 7146.9Z" fill="#5f7481" stroke="#5f7481"></path><path d="M3002.7 7168.9L2998.7 7538.9L3417.3 7144.9Z" fill="#5f7481" stroke="#5f7481"></path><path d="M1301 7540.9L1313 7150.9L817.3 7187.9Z" fill="#6c838d" stroke="#6c838d"></path><path d="M835.3 7557.9L1301 7540.9L817.3 7187.9Z" fill="#5c717f" stroke="#5c717f"></path><path d="M1731.7 8000L2134.3 7610.9L1727.7 7561.9Z" fill="#5f7481" stroke="#5f7481"></path><path d="M1727.7 7561.9L2134.3 7610.9L2130.3 7146.9Z" fill="#69808b" stroke="#69808b"></path><path d="M2134.3 7610.9L2524 7573.9L2130.3 7146.9Z" fill="#556977" stroke="#556977"></path><path d="M0 6758.8L0 7160.9L461.7 7124.9Z" fill="#556977" stroke="#556977"></path><path d="M441.7 7596.9L835.3 7557.9L817.3 7187.9Z" fill="#69808b" stroke="#69808b"></path><path d="M440.7 0L0 0L447.7 421.1Z" fill="#5c717f" stroke="#5c717f"></path><path d="M3417.3 7144.9L3840 7155.9L3840 6761.8Z" fill="#5f7481" stroke="#5f7481"></path><path d="M3452.3 7538.9L3840 7155.9L3417.3 7144.9Z" fill="#556977" stroke="#556977"></path><path d="M3840 403.1L3840 0L3428.3 0Z" fill="#556977" stroke="#556977"></path><path d="M3452.3 7538.9L2998.7 7538.9L3419.3 8000Z" fill="#6c838d" stroke="#6c838d"></path><path d="M2524 7573.9L2998.7 7538.9L2547 7119.9Z" fill="#69808b" stroke="#69808b"></path><path d="M441.7 7596.9L817.3 7187.9L461.7 7124.9Z" fill="#617783" stroke="#617783"></path><path d="M1299 8000L1731.7 8000L1727.7 7561.9Z" fill="#526675" stroke="#526675"></path><path d="M2592 8000L2998.7 7538.9L2524 7573.9Z" fill="#617783" stroke="#617783"></path><path d="M2998.7 7538.9L3452.3 7538.9L3417.3 7144.9Z" fill="#5a6e7c" stroke="#5a6e7c"></path><path d="M0 7160.9L441.7 7596.9L461.7 7124.9Z" fill="#526675" stroke="#526675"></path><path d="M1299 8000L1727.7 7561.9L1301 7540.9Z" fill="#5f7481" stroke="#5f7481"></path><path d="M1299 8000L1301 7540.9L835.3 7557.9Z" fill="#677d88" stroke="#677d88"></path><path d="M2134.3 7610.9L2120.3 8000L2524 7573.9Z" fill="#556977" stroke="#556977"></path><path d="M1731.7 8000L2120.3 8000L2134.3 7610.9Z" fill="#617783" stroke="#617783"></path><path d="M0 7160.9L0 7603.9L441.7 7596.9Z" fill="#576c7a" stroke="#576c7a"></path><path d="M823.3 8000L1299 8000L835.3 7557.9Z" fill="#556977" stroke="#556977"></path><path d="M3419.3 8000L3840 7597.9L3452.3 7538.9Z" fill="#647a86" stroke="#647a86"></path><path d="M3452.3 7538.9L3840 7597.9L3840 7155.9Z" fill="#5f7481" stroke="#5f7481"></path><path d="M823.3 8000L835.3 7557.9L441.7 7596.9Z" fill="#526675" stroke="#526675"></path><path d="M2120.3 8000L2592 8000L2524 7573.9Z" fill="#6c838d" stroke="#6c838d"></path><path d="M442.7 8000L823.3 8000L441.7 7596.9Z" fill="#5f7481" stroke="#5f7481"></path><path d="M2592 8000L3000.7 8000L2998.7 7538.9Z" fill="#6c838d" stroke="#6c838d"></path><path d="M0 7603.9L442.7 8000L441.7 7596.9Z" fill="#6c838d" stroke="#6c838d"></path><path d="M3000.7 8000L3419.3 8000L2998.7 7538.9Z" fill="#526675" stroke="#526675"></path><path d="M0 7603.9L0 8000L442.7 8000Z" fill="#5f7481" stroke="#5f7481"></path><path d="M3419.3 8000L3840 8000L3840 7597.9Z" fill="#5a6e7c" stroke="#5a6e7c"></path></g></svg>