<svg id="visual" viewBox="0 0 3840 8000" width="3840" height="8000" xmlns="http://www.w3.org/2000/svg" xmlns:xlink="http://www.w3.org/1999/xlink" version="1.1"><g stroke-width="5" stroke-linejoin="bevel"><path d="M1783.3 4024L2039.7 3720.3L1769.3 3732.3Z" fill="#dcdcdc" stroke="#6cf9f9"></path><path d="M1783.3 4024L2091.7 4019L2039.7 3720.3Z" fill="#c5c5c5" stroke="#6cf9f9"></path><path d="M2039.7 3720.3L1776.3 3451.6L1769.3 3732.3Z" fill="#ebecec" stroke="#6cf9f9"></path><path d="M2091.7 4019L2334.1 3695.3L2039.7 3720.3Z" fill="#afafaf" stroke="#6cf9f9"></path><path d="M2039.7 3720.3L2088.7 3402.6L1776.3 3451.6Z" fill="#ebecec" stroke="#6cf9f9"></path><path d="M1783.3 4024L2057.7 4306.7L2091.7 4019Z" fill="#ebecec" stroke="#6cf9f9"></path><path d="M2091.7 4019L2378.1 3971L2334.1 3695.3Z" fill="#e3e4e4" stroke="#6cf9f9"></path><path d="M1783.3 4024L1806.3 4318.7L2057.7 4306.7Z" fill="#e3e4e4" stroke="#6cf9f9"></path><path d="M2343.1 4277.7L2378.1 3971L2091.7 4019Z" fill="#ebecec" stroke="#6cf9f9"></path><path d="M1504.9 3443.6L1456.9 3708.3L1769.3 3732.3Z" fill="#cccdcd" stroke="#6cf9f9"></path><path d="M1769.3 3732.3L1445.9 4017L1783.3 4024Z" fill="#d4d4d4" stroke="#6cf9f9"></path><path d="M1783.3 4024L1449.9 4270.7L1806.3 4318.7Z" fill="#dcdcdc" stroke="#6cf9f9"></path><path d="M1456.9 3708.3L1445.9 4017L1769.3 3732.3Z" fill="#b6b6b6" stroke="#6cf9f9"></path><path d="M2334.1 3695.3L2088.7 3402.6L2039.7 3720.3Z" fill="#e3e4e4" stroke="#6cf9f9"></path><path d="M1768.3 3154.9L1504.9 3443.6L1776.3 3451.6Z" fill="#a0a0a0" stroke="#6cf9f9"></path><path d="M1776.3 3451.6L1504.9 3443.6L1769.3 3732.3Z" fill="#cccdcd" stroke="#6cf9f9"></path><path d="M2057.7 4306.7L2343.1 4277.7L2091.7 4019Z" fill="#a7a7a7" stroke="#6cf9f9"></path><path d="M1445.9 4017L1449.9 4270.7L1783.3 4024Z" fill="#ebecec" stroke="#6cf9f9"></path><path d="M2661.5 3691.3L2353.1 3412.6L2334.1 3695.3Z" fill="#dcdcdc" stroke="#6cf9f9"></path><path d="M2334.1 3695.3L2353.1 3412.6L2088.7 3402.6Z" fill="#c5c5c5" stroke="#6cf9f9"></path><path d="M1806.3 4318.7L2031.7 4554.4L2057.7 4306.7Z" fill="#d4d4d4" stroke="#6cf9f9"></path><path d="M2057.7 4306.7L2393.1 4560.4L2343.1 4277.7Z" fill="#a7a7a7" stroke="#6cf9f9"></path><path d="M1780.3 4565.4L2031.7 4554.4L1806.3 4318.7Z" fill="#a0a0a0" stroke="#6cf9f9"></path><path d="M1499.9 4586.4L1780.3 4565.4L1806.3 4318.7Z" fill="#a7a7a7" stroke="#6cf9f9"></path><path d="M2346.1 3115.9L2045.7 3154.9L2088.7 3402.6Z" fill="#b6b6b6" stroke="#6cf9f9"></path><path d="M2088.7 3402.6L2045.7 3154.9L1776.3 3451.6Z" fill="#e3e4e4" stroke="#6cf9f9"></path><path d="M2045.7 3154.9L1768.3 3154.9L1776.3 3451.6Z" fill="#cccdcd" stroke="#6cf9f9"></path><path d="M1154.5 3680.3L1164.5 4018L1456.9 3708.3Z" fill="#bdbdbd" stroke="#6cf9f9"></path><path d="M1456.9 3708.3L1164.5 4018L1445.9 4017Z" fill="#bdbdbd" stroke="#6cf9f9"></path><path d="M1445.9 4017L1164.5 4018L1449.9 4270.7Z" fill="#afafaf" stroke="#6cf9f9"></path><path d="M1449.9 4270.7L1499.9 4586.4L1806.3 4318.7Z" fill="#cccdcd" stroke="#6cf9f9"></path><path d="M2679.5 4007L2661.5 3691.3L2378.1 3971Z" fill="#dcdcdc" stroke="#6cf9f9"></path><path d="M2378.1 3971L2661.5 3691.3L2334.1 3695.3Z" fill="#ebecec" stroke="#6cf9f9"></path><path d="M1192.5 3431.6L1456.9 3708.3L1504.9 3443.6Z" fill="#e3e4e4" stroke="#6cf9f9"></path><path d="M1192.5 3431.6L1154.5 3680.3L1456.9 3708.3Z" fill="#afafaf" stroke="#6cf9f9"></path><path d="M2630.5 4279.7L2378.1 3971L2343.1 4277.7Z" fill="#c5c5c5" stroke="#6cf9f9"></path><path d="M2630.5 4279.7L2679.5 4007L2378.1 3971Z" fill="#ebecec" stroke="#6cf9f9"></path><path d="M1145.5 4545.4L1499.9 4586.4L1449.9 4270.7Z" fill="#e3e4e4" stroke="#6cf9f9"></path><path d="M2059.7 4826.1L2393.1 4560.4L2031.7 4554.4Z" fill="#b6b6b6" stroke="#6cf9f9"></path><path d="M2393.1 4560.4L2630.5 4279.7L2343.1 4277.7Z" fill="#afafaf" stroke="#6cf9f9"></path><path d="M2059.7 4826.1L2031.7 4554.4L1780.3 4565.4Z" fill="#a0a0a0" stroke="#6cf9f9"></path><path d="M2031.7 4554.4L2393.1 4560.4L2057.7 4306.7Z" fill="#ebecec" stroke="#6cf9f9"></path><path d="M1475.9 3138.9L1192.5 3431.6L1504.9 3443.6Z" fill="#dcdcdc" stroke="#6cf9f9"></path><path d="M1145.5 4545.4L1167.5 4282.7L905.2 4313.7Z" fill="#e3e4e4" stroke="#6cf9f9"></path><path d="M1164.5 4018L1167.5 4282.7L1449.9 4270.7Z" fill="#bdbdbd" stroke="#6cf9f9"></path><path d="M1449.9 2848.1L1475.9 3138.9L1768.3 3154.9Z" fill="#cccdcd" stroke="#6cf9f9"></path><path d="M1768.3 3154.9L1475.9 3138.9L1504.9 3443.6Z" fill="#d4d4d4" stroke="#6cf9f9"></path><path d="M2648.5 3153.9L2346.1 3115.9L2353.1 3412.6Z" fill="#d4d4d4" stroke="#6cf9f9"></path><path d="M2353.1 3412.6L2346.1 3115.9L2088.7 3402.6Z" fill="#afafaf" stroke="#6cf9f9"></path><path d="M2045.7 3154.9L2034.7 2878.1L1768.3 3154.9Z" fill="#dcdcdc" stroke="#6cf9f9"></path><path d="M2921.8 3697.3L2662.5 3415.6L2661.5 3691.3Z" fill="#dcdcdc" stroke="#6cf9f9"></path><path d="M2661.5 3691.3L2662.5 3415.6L2353.1 3412.6Z" fill="#a7a7a7" stroke="#6cf9f9"></path><path d="M1784.3 4849.1L2059.7 4826.1L1780.3 4565.4Z" fill="#e3e4e4" stroke="#6cf9f9"></path><path d="M1467.9 4859.1L1784.3 4849.1L1499.9 4586.4Z" fill="#b6b6b6" stroke="#6cf9f9"></path><path d="M1499.9 4586.4L1784.3 4849.1L1780.3 4565.4Z" fill="#afafaf" stroke="#6cf9f9"></path><path d="M2346.1 3115.9L2034.7 2878.1L2045.7 3154.9Z" fill="#afafaf" stroke="#6cf9f9"></path><path d="M905.2 4313.7L1167.5 4282.7L1164.5 4018Z" fill="#afafaf" stroke="#6cf9f9"></path><path d="M1167.5 4282.7L1145.5 4545.4L1449.9 4270.7Z" fill="#b6b6b6" stroke="#6cf9f9"></path><path d="M2988.8 3987L2921.8 3697.3L2679.5 4007Z" fill="#e3e4e4" stroke="#6cf9f9"></path><path d="M2679.5 4007L2921.8 3697.3L2661.5 3691.3Z" fill="#cccdcd" stroke="#6cf9f9"></path><path d="M2635.5 4823.1L2658.5 4577.4L2393.1 4560.4Z" fill="#dcdcdc" stroke="#6cf9f9"></path><path d="M2393.1 4560.4L2658.5 4577.4L2630.5 4279.7Z" fill="#cccdcd" stroke="#6cf9f9"></path><path d="M2937.8 4295.7L2988.8 3987L2679.5 4007Z" fill="#c5c5c5" stroke="#6cf9f9"></path><path d="M2662.5 3415.6L2648.5 3153.9L2353.1 3412.6Z" fill="#a0a0a0" stroke="#6cf9f9"></path><path d="M2346.1 3115.9L2394.1 2862.1L2034.7 2878.1Z" fill="#a0a0a0" stroke="#6cf9f9"></path><path d="M2949.8 3163.9L2648.5 3153.9L2662.5 3415.6Z" fill="#cccdcd" stroke="#6cf9f9"></path><path d="M859.2 3699.3L883.2 3980L1154.5 3680.3Z" fill="#c5c5c5" stroke="#6cf9f9"></path><path d="M1154.5 3680.3L883.2 3980L1164.5 4018Z" fill="#a7a7a7" stroke="#6cf9f9"></path><path d="M2034.7 2878.1L1801.3 2822.1L1768.3 3154.9Z" fill="#dcdcdc" stroke="#6cf9f9"></path><path d="M1449.9 2848.1L1157.5 3120.9L1475.9 3138.9Z" fill="#c5c5c5" stroke="#6cf9f9"></path><path d="M1475.9 3138.9L1157.5 3120.9L1192.5 3431.6Z" fill="#cccdcd" stroke="#6cf9f9"></path><path d="M898.2 3416.6L859.2 3699.3L1154.5 3680.3Z" fill="#b6b6b6" stroke="#6cf9f9"></path><path d="M898.2 3416.6L1154.5 3680.3L1192.5 3431.6Z" fill="#b6b6b6" stroke="#6cf9f9"></path><path d="M2081.7 5149.9L2370.1 4834.1L2059.7 4826.1Z" fill="#ebecec" stroke="#6cf9f9"></path><path d="M2059.7 4826.1L2370.1 4834.1L2393.1 4560.4Z" fill="#b6b6b6" stroke="#6cf9f9"></path><path d="M1145.5 4545.4L1467.9 4859.1L1499.9 4586.4Z" fill="#afafaf" stroke="#6cf9f9"></path><path d="M1784.3 4849.1L2081.7 5149.9L2059.7 4826.1Z" fill="#ebecec" stroke="#6cf9f9"></path><path d="M2937.8 4295.7L2679.5 4007L2630.5 4279.7Z" fill="#b6b6b6" stroke="#6cf9f9"></path><path d="M867.2 4539.4L905.2 4313.7L603.8 4544.4Z" fill="#bdbdbd" stroke="#6cf9f9"></path><path d="M883.2 3980L905.2 4313.7L1164.5 4018Z" fill="#bdbdbd" stroke="#6cf9f9"></path><path d="M1145.5 4545.4L1153.5 4876.1L1467.9 4859.1Z" fill="#afafaf" stroke="#6cf9f9"></path><path d="M1157.5 3120.9L898.2 3416.6L1192.5 3431.6Z" fill="#ebecec" stroke="#6cf9f9"></path><path d="M2658.5 4577.4L2937.8 4295.7L2630.5 4279.7Z" fill="#a7a7a7" stroke="#6cf9f9"></path><path d="M2648.5 3153.9L2394.1 2862.1L2346.1 3115.9Z" fill="#d4d4d4" stroke="#6cf9f9"></path><path d="M2034.7 2878.1L2057.7 2604.4L1801.3 2822.1Z" fill="#a7a7a7" stroke="#6cf9f9"></path><path d="M1801.3 2822.1L1449.9 2848.1L1768.3 3154.9Z" fill="#ebecec" stroke="#6cf9f9"></path><path d="M3219.2 3432.6L2947.8 3425.6L2921.8 3697.3Z" fill="#bdbdbd" stroke="#6cf9f9"></path><path d="M2921.8 3697.3L2947.8 3425.6L2662.5 3415.6Z" fill="#a0a0a0" stroke="#6cf9f9"></path><path d="M2648.5 3153.9L2668.5 2879.1L2394.1 2862.1Z" fill="#d4d4d4" stroke="#6cf9f9"></path><path d="M2370.1 4834.1L2635.5 4823.1L2393.1 4560.4Z" fill="#a7a7a7" stroke="#6cf9f9"></path><path d="M2658.5 4577.4L2979.8 4546.4L2937.8 4295.7Z" fill="#d4d4d4" stroke="#6cf9f9"></path><path d="M570.8 4018L905.2 4313.7L883.2 3980Z" fill="#e3e4e4" stroke="#6cf9f9"></path><path d="M905.2 4313.7L867.2 4539.4L1145.5 4545.4Z" fill="#dcdcdc" stroke="#6cf9f9"></path><path d="M2949.8 3163.9L2668.5 2879.1L2648.5 3153.9Z" fill="#c5c5c5" stroke="#6cf9f9"></path><path d="M2394.1 2862.1L2057.7 2604.4L2034.7 2878.1Z" fill="#bdbdbd" stroke="#6cf9f9"></path><path d="M3219.2 3432.6L2949.8 3163.9L2947.8 3425.6Z" fill="#ebecec" stroke="#6cf9f9"></path><path d="M2947.8 3425.6L2949.8 3163.9L2662.5 3415.6Z" fill="#afafaf" stroke="#6cf9f9"></path><path d="M882.2 4843.1L1153.5 4876.1L1145.5 4545.4Z" fill="#afafaf" stroke="#6cf9f9"></path><path d="M1764.3 5175.9L2081.7 5149.9L1784.3 4849.1Z" fill="#e3e4e4" stroke="#6cf9f9"></path><path d="M2977.8 4882.1L2979.8 4546.4L2658.5 4577.4Z" fill="#ebecec" stroke="#6cf9f9"></path><path d="M3222.2 4284.7L3223.2 4029L2988.8 3987Z" fill="#dcdcdc" stroke="#6cf9f9"></path><path d="M2393.1 2550.4L2057.7 2604.4L2394.1 2862.1Z" fill="#bdbdbd" stroke="#6cf9f9"></path><path d="M1801.3 2822.1L1780.3 2588.4L1449.9 2848.1Z" fill="#ebecec" stroke="#6cf9f9"></path><path d="M917.2 2886.1L872.2 3130.9L1157.5 3120.9Z" fill="#afafaf" stroke="#6cf9f9"></path><path d="M1157.5 3120.9L872.2 3130.9L898.2 3416.6Z" fill="#dcdcdc" stroke="#6cf9f9"></path><path d="M560.8 3749.3L883.2 3980L859.2 3699.3Z" fill="#d4d4d4" stroke="#6cf9f9"></path><path d="M1447.9 2555.4L1165.5 2826.1L1449.9 2848.1Z" fill="#e3e4e4" stroke="#6cf9f9"></path><path d="M1449.9 2848.1L1165.5 2826.1L1157.5 3120.9Z" fill="#ebecec" stroke="#6cf9f9"></path><path d="M1764.3 5175.9L1784.3 4849.1L1467.9 4859.1Z" fill="#b6b6b6" stroke="#6cf9f9"></path><path d="M2370.1 4834.1L2386.1 5106.9L2635.5 4823.1Z" fill="#bdbdbd" stroke="#6cf9f9"></path><path d="M2057.7 2604.4L1780.3 2588.4L1801.3 2822.1Z" fill="#b6b6b6" stroke="#6cf9f9"></path><path d="M1456.9 5151.9L1764.3 5175.9L1467.9 4859.1Z" fill="#d4d4d4" stroke="#6cf9f9"></path><path d="M3222.2 4284.7L2988.8 3987L2937.8 4295.7Z" fill="#afafaf" stroke="#6cf9f9"></path><path d="M2988.8 3987L3267.2 3699.3L2921.8 3697.3Z" fill="#afafaf" stroke="#6cf9f9"></path><path d="M2081.7 5149.9L2386.1 5106.9L2370.1 4834.1Z" fill="#afafaf" stroke="#6cf9f9"></path><path d="M2635.5 4823.1L2977.8 4882.1L2658.5 4577.4Z" fill="#e3e4e4" stroke="#6cf9f9"></path><path d="M560.8 3749.3L859.2 3699.3L619.8 3454.6Z" fill="#bdbdbd" stroke="#6cf9f9"></path><path d="M560.8 3749.3L570.8 4018L883.2 3980Z" fill="#c5c5c5" stroke="#6cf9f9"></path><path d="M619.8 3454.6L859.2 3699.3L898.2 3416.6Z" fill="#afafaf" stroke="#6cf9f9"></path><path d="M872.2 3130.9L619.8 3454.6L898.2 3416.6Z" fill="#c5c5c5" stroke="#6cf9f9"></path><path d="M1209.5 5132.9L1456.9 5151.9L1467.9 4859.1Z" fill="#d4d4d4" stroke="#6cf9f9"></path><path d="M3223.2 4029L3267.2 3699.3L2988.8 3987Z" fill="#a7a7a7" stroke="#6cf9f9"></path><path d="M2979.8 4546.4L3222.2 4284.7L2937.8 4295.7Z" fill="#dcdcdc" stroke="#6cf9f9"></path><path d="M3223.2 4029L3540.6 4013L3267.2 3699.3Z" fill="#ebecec" stroke="#6cf9f9"></path><path d="M3267.2 3699.3L3219.2 3432.6L2921.8 3697.3Z" fill="#afafaf" stroke="#6cf9f9"></path><path d="M2640.5 2544.4L2394.1 2862.1L2668.5 2879.1Z" fill="#dcdcdc" stroke="#6cf9f9"></path><path d="M1780.3 2588.4L1447.9 2555.4L1449.9 2848.1Z" fill="#cccdcd" stroke="#6cf9f9"></path><path d="M1497.9 2270.7L1447.9 2555.4L1780.3 2588.4Z" fill="#c5c5c5" stroke="#6cf9f9"></path><path d="M1165.5 2826.1L917.2 2886.1L1157.5 3120.9Z" fill="#afafaf" stroke="#6cf9f9"></path><path d="M872.2 3130.9L601.8 3129.9L619.8 3454.6Z" fill="#a7a7a7" stroke="#6cf9f9"></path><path d="M855.2 2592.4L917.2 2886.1L1165.5 2826.1Z" fill="#c5c5c5" stroke="#6cf9f9"></path><path d="M2978.8 2869.1L2668.5 2879.1L2949.8 3163.9Z" fill="#bdbdbd" stroke="#6cf9f9"></path><path d="M2640.5 2544.4L2393.1 2550.4L2394.1 2862.1Z" fill="#dcdcdc" stroke="#6cf9f9"></path><path d="M2057.7 2604.4L1787.3 2284.7L1780.3 2588.4Z" fill="#a7a7a7" stroke="#6cf9f9"></path><path d="M867.2 4539.4L882.2 4843.1L1145.5 4545.4Z" fill="#a7a7a7" stroke="#6cf9f9"></path><path d="M1153.5 4876.1L1209.5 5132.9L1467.9 4859.1Z" fill="#c5c5c5" stroke="#6cf9f9"></path><path d="M611.8 4856.1L882.2 4843.1L867.2 4539.4Z" fill="#dcdcdc" stroke="#6cf9f9"></path><path d="M314.4 3997L561.8 4298.7L570.8 4018Z" fill="#a7a7a7" stroke="#6cf9f9"></path><path d="M570.8 4018L561.8 4298.7L905.2 4313.7Z" fill="#ebecec" stroke="#6cf9f9"></path><path d="M876.2 5123.9L1209.5 5132.9L1153.5 4876.1Z" fill="#afafaf" stroke="#6cf9f9"></path><path d="M1456.9 5151.9L1763.3 5402.6L1764.3 5175.9Z" fill="#ebecec" stroke="#6cf9f9"></path><path d="M3249.2 3177.9L2978.8 2869.1L2949.8 3163.9Z" fill="#bdbdbd" stroke="#6cf9f9"></path><path d="M2684.5 5144.9L2977.8 4882.1L2635.5 4823.1Z" fill="#d4d4d4" stroke="#6cf9f9"></path><path d="M2979.8 4546.4L3245.2 4582.4L3222.2 4284.7Z" fill="#afafaf" stroke="#6cf9f9"></path><path d="M561.8 4298.7L603.8 4544.4L905.2 4313.7Z" fill="#dcdcdc" stroke="#6cf9f9"></path><path d="M2386.1 5106.9L2684.5 5144.9L2635.5 4823.1Z" fill="#d4d4d4" stroke="#6cf9f9"></path><path d="M2669.5 5440.6L2684.5 5144.9L2386.1 5106.9Z" fill="#b6b6b6" stroke="#6cf9f9"></path><path d="M2329.1 5434.6L2386.1 5106.9L2081.7 5149.9Z" fill="#d4d4d4" stroke="#6cf9f9"></path><path d="M559.8 2891.1L601.8 3129.9L872.2 3130.9Z" fill="#d4d4d4" stroke="#6cf9f9"></path><path d="M315.4 3712.3L314.4 3997L560.8 3749.3Z" fill="#a0a0a0" stroke="#6cf9f9"></path><path d="M3511.6 3407.6L3249.2 3177.9L3219.2 3432.6Z" fill="#dcdcdc" stroke="#6cf9f9"></path><path d="M3219.2 3432.6L3249.2 3177.9L2949.8 3163.9Z" fill="#e3e4e4" stroke="#6cf9f9"></path><path d="M2977.8 4882.1L3245.2 4582.4L2979.8 4546.4Z" fill="#cccdcd" stroke="#6cf9f9"></path><path d="M3222.2 4284.7L3540.6 4013L3223.2 4029Z" fill="#d4d4d4" stroke="#6cf9f9"></path><path d="M1183.5 2256.7L1178.5 2547.4L1447.9 2555.4Z" fill="#afafaf" stroke="#6cf9f9"></path><path d="M1447.9 2555.4L1178.5 2547.4L1165.5 2826.1Z" fill="#d4d4d4" stroke="#6cf9f9"></path><path d="M917.2 2886.1L559.8 2891.1L872.2 3130.9Z" fill="#ebecec" stroke="#6cf9f9"></path><path d="M2918.8 2582.4L2640.5 2544.4L2668.5 2879.1Z" fill="#bdbdbd" stroke="#6cf9f9"></path><path d="M2393.1 2550.4L2078.7 2292.7L2057.7 2604.4Z" fill="#b6b6b6" stroke="#6cf9f9"></path><path d="M1481.9 5451.6L1763.3 5402.6L1456.9 5151.9Z" fill="#cccdcd" stroke="#6cf9f9"></path><path d="M1764.3 5175.9L2090.7 5416.6L2081.7 5149.9Z" fill="#ebecec" stroke="#6cf9f9"></path><path d="M1763.3 5402.6L2090.7 5416.6L1764.3 5175.9Z" fill="#b6b6b6" stroke="#6cf9f9"></path><path d="M2359.1 2307.7L2078.7 2292.7L2393.1 2550.4Z" fill="#b6b6b6" stroke="#6cf9f9"></path><path d="M2078.7 2292.7L1787.3 2284.7L2057.7 2604.4Z" fill="#a0a0a0" stroke="#6cf9f9"></path><path d="M315.4 3712.3L560.8 3749.3L619.8 3454.6Z" fill="#c5c5c5" stroke="#6cf9f9"></path><path d="M560.8 3749.3L314.4 3997L570.8 4018Z" fill="#dcdcdc" stroke="#6cf9f9"></path><path d="M561.8 4298.7L310.4 4587.4L603.8 4544.4Z" fill="#ebecec" stroke="#6cf9f9"></path><path d="M271.4 3398.6L315.4 3712.3L619.8 3454.6Z" fill="#a7a7a7" stroke="#6cf9f9"></path><path d="M2064.7 5720.3L2329.1 5434.6L2090.7 5416.6Z" fill="#a0a0a0" stroke="#6cf9f9"></path><path d="M2090.7 5416.6L2329.1 5434.6L2081.7 5149.9Z" fill="#a7a7a7" stroke="#6cf9f9"></path><path d="M611.8 4856.1L876.2 5123.9L882.2 4843.1Z" fill="#dcdcdc" stroke="#6cf9f9"></path><path d="M882.2 4843.1L876.2 5123.9L1153.5 4876.1Z" fill="#d4d4d4" stroke="#6cf9f9"></path><path d="M1198.5 5459.6L1481.9 5451.6L1456.9 5151.9Z" fill="#a0a0a0" stroke="#6cf9f9"></path><path d="M611.8 4856.1L867.2 4539.4L603.8 4544.4Z" fill="#bdbdbd" stroke="#6cf9f9"></path><path d="M2640.5 2544.4L2359.1 2307.7L2393.1 2550.4Z" fill="#cccdcd" stroke="#6cf9f9"></path><path d="M2684.5 5144.9L2923.8 5145.9L2977.8 4882.1Z" fill="#ebecec" stroke="#6cf9f9"></path><path d="M2977.8 4882.1L3237.2 4865.1L3245.2 4582.4Z" fill="#cccdcd" stroke="#6cf9f9"></path><path d="M2669.5 5440.6L2923.8 5145.9L2684.5 5144.9Z" fill="#bdbdbd" stroke="#6cf9f9"></path><path d="M310.4 4587.4L611.8 4856.1L603.8 4544.4Z" fill="#bdbdbd" stroke="#6cf9f9"></path><path d="M3567.6 4282.7L3540.6 4013L3222.2 4284.7Z" fill="#d4d4d4" stroke="#6cf9f9"></path><path d="M3267.2 3699.3L3511.6 3407.6L3219.2 3432.6Z" fill="#b6b6b6" stroke="#6cf9f9"></path><path d="M2978.8 2869.1L2918.8 2582.4L2668.5 2879.1Z" fill="#bdbdbd" stroke="#6cf9f9"></path><path d="M2640.5 2544.4L2660.5 2274.7L2359.1 2307.7Z" fill="#a0a0a0" stroke="#6cf9f9"></path><path d="M3246.2 2552.4L2918.8 2582.4L2978.8 2869.1Z" fill="#b6b6b6" stroke="#6cf9f9"></path><path d="M1198.5 5459.6L1456.9 5151.9L1209.5 5132.9Z" fill="#bdbdbd" stroke="#6cf9f9"></path><path d="M1763.3 5402.6L2064.7 5720.3L2090.7 5416.6Z" fill="#c5c5c5" stroke="#6cf9f9"></path><path d="M1770.3 1983L1497.9 2270.7L1787.3 2284.7Z" fill="#c5c5c5" stroke="#6cf9f9"></path><path d="M1787.3 2284.7L1497.9 2270.7L1780.3 2588.4Z" fill="#dcdcdc" stroke="#6cf9f9"></path><path d="M3540.6 4013L3557.6 3722.3L3267.2 3699.3Z" fill="#cccdcd" stroke="#6cf9f9"></path><path d="M3249.2 3177.9L3253.2 2838.1L2978.8 2869.1Z" fill="#c5c5c5" stroke="#6cf9f9"></path><path d="M3241.2 5162.9L3237.2 4865.1L2977.8 4882.1Z" fill="#cccdcd" stroke="#6cf9f9"></path><path d="M3536.6 4571.4L3567.6 4282.7L3222.2 4284.7Z" fill="#a0a0a0" stroke="#6cf9f9"></path><path d="M898.2 2314.7L855.2 2592.4L1178.5 2547.4Z" fill="#e3e4e4" stroke="#6cf9f9"></path><path d="M1178.5 2547.4L855.2 2592.4L1165.5 2826.1Z" fill="#ebecec" stroke="#6cf9f9"></path><path d="M601.8 3129.9L271.4 3398.6L619.8 3454.6Z" fill="#a0a0a0" stroke="#6cf9f9"></path><path d="M3557.6 3722.3L3511.6 3407.6L3267.2 3699.3Z" fill="#afafaf" stroke="#6cf9f9"></path><path d="M855.2 2592.4L559.8 2891.1L917.2 2886.1Z" fill="#d4d4d4" stroke="#6cf9f9"></path><path d="M0 3970L268.4 4281.7L314.4 3997Z" fill="#ebecec" stroke="#6cf9f9"></path><path d="M314.4 3997L268.4 4281.7L561.8 4298.7Z" fill="#b6b6b6" stroke="#6cf9f9"></path><path d="M3520.6 2874.1L3253.2 2838.1L3249.2 3177.9Z" fill="#ebecec" stroke="#6cf9f9"></path><path d="M274.4 3171.9L271.4 3398.6L601.8 3129.9Z" fill="#bdbdbd" stroke="#6cf9f9"></path><path d="M315.4 3712.3L0 3970L314.4 3997Z" fill="#d4d4d4" stroke="#6cf9f9"></path><path d="M3536.6 4571.4L3222.2 4284.7L3245.2 4582.4Z" fill="#ebecec" stroke="#6cf9f9"></path><path d="M3540.6 4013L3840 3740.3L3557.6 3722.3Z" fill="#a7a7a7" stroke="#6cf9f9"></path><path d="M854.2 5450.6L1198.5 5459.6L876.2 5123.9Z" fill="#a7a7a7" stroke="#6cf9f9"></path><path d="M876.2 5123.9L1198.5 5459.6L1209.5 5132.9Z" fill="#d4d4d4" stroke="#6cf9f9"></path><path d="M2643.5 5692.3L2669.5 5440.6L2329.1 5434.6Z" fill="#bdbdbd" stroke="#6cf9f9"></path><path d="M2064.7 5720.3L1763.3 5402.6L1778.3 5740.3Z" fill="#afafaf" stroke="#6cf9f9"></path><path d="M2329.1 5434.6L2669.5 5440.6L2386.1 5106.9Z" fill="#e3e4e4" stroke="#6cf9f9"></path><path d="M2923.8 5145.9L3241.2 5162.9L2977.8 4882.1Z" fill="#bdbdbd" stroke="#6cf9f9"></path><path d="M268.4 4281.7L310.4 4587.4L561.8 4298.7Z" fill="#ebecec" stroke="#6cf9f9"></path><path d="M611.8 4856.1L596.8 5156.9L876.2 5123.9Z" fill="#afafaf" stroke="#6cf9f9"></path><path d="M2918.8 2582.4L2660.5 2274.7L2640.5 2544.4Z" fill="#afafaf" stroke="#6cf9f9"></path><path d="M2332.1 2022L2046.7 2021L2078.7 2292.7Z" fill="#c5c5c5" stroke="#6cf9f9"></path><path d="M2078.7 2292.7L2046.7 2021L1787.3 2284.7Z" fill="#d4d4d4" stroke="#6cf9f9"></path><path d="M2925.8 2260.7L2660.5 2274.7L2918.8 2582.4Z" fill="#d4d4d4" stroke="#6cf9f9"></path><path d="M3571.6 4829.1L3245.2 4582.4L3237.2 4865.1Z" fill="#e3e4e4" stroke="#6cf9f9"></path><path d="M3571.6 4829.1L3536.6 4571.4L3245.2 4582.4Z" fill="#c5c5c5" stroke="#6cf9f9"></path><path d="M1489.9 2014L1183.5 2256.7L1497.9 2270.7Z" fill="#cccdcd" stroke="#6cf9f9"></path><path d="M1497.9 2270.7L1183.5 2256.7L1447.9 2555.4Z" fill="#ebecec" stroke="#6cf9f9"></path><path d="M313.4 2882.1L601.8 3129.9L559.8 2891.1Z" fill="#d4d4d4" stroke="#6cf9f9"></path><path d="M313.4 2882.1L274.4 3171.9L601.8 3129.9Z" fill="#bdbdbd" stroke="#6cf9f9"></path><path d="M577.8 2557.4L559.8 2891.1L855.2 2592.4Z" fill="#a0a0a0" stroke="#6cf9f9"></path><path d="M3511.6 3407.6L3577.6 3164.9L3249.2 3177.9Z" fill="#ebecec" stroke="#6cf9f9"></path><path d="M3840 3403.6L3577.6 3164.9L3511.6 3407.6Z" fill="#a7a7a7" stroke="#6cf9f9"></path><path d="M3840 3403.6L3511.6 3407.6L3557.6 3722.3Z" fill="#e3e4e4" stroke="#6cf9f9"></path><path d="M307.4 4860.1L596.8 5156.9L611.8 4856.1Z" fill="#cccdcd" stroke="#6cf9f9"></path><path d="M2981.8 5425.6L3241.2 5162.9L2923.8 5145.9Z" fill="#bdbdbd" stroke="#6cf9f9"></path><path d="M1778.3 5740.3L1763.3 5402.6L1481.9 5451.6Z" fill="#ebecec" stroke="#6cf9f9"></path><path d="M2332.1 2022L2078.7 2292.7L2359.1 2307.7Z" fill="#e3e4e4" stroke="#6cf9f9"></path><path d="M897.2 2029L898.2 2314.7L1183.5 2256.7Z" fill="#afafaf" stroke="#6cf9f9"></path><path d="M1183.5 2256.7L898.2 2314.7L1178.5 2547.4Z" fill="#cccdcd" stroke="#6cf9f9"></path><path d="M898.2 2314.7L577.8 2557.4L855.2 2592.4Z" fill="#b6b6b6" stroke="#6cf9f9"></path><path d="M1476.9 5740.3L1778.3 5740.3L1481.9 5451.6Z" fill="#b6b6b6" stroke="#6cf9f9"></path><path d="M3550.6 2596.4L3246.2 2552.4L3253.2 2838.1Z" fill="#cccdcd" stroke="#6cf9f9"></path><path d="M3253.2 2838.1L3246.2 2552.4L2978.8 2869.1Z" fill="#ebecec" stroke="#6cf9f9"></path><path d="M577.8 2557.4L313.4 2882.1L559.8 2891.1Z" fill="#afafaf" stroke="#6cf9f9"></path><path d="M310.4 4587.4L307.4 4860.1L611.8 4856.1Z" fill="#a0a0a0" stroke="#6cf9f9"></path><path d="M0 4833.1L307.4 4860.1L310.4 4587.4Z" fill="#b6b6b6" stroke="#6cf9f9"></path><path d="M2669.5 5440.6L2981.8 5425.6L2923.8 5145.9Z" fill="#d4d4d4" stroke="#6cf9f9"></path><path d="M2964.8 5686.3L2981.8 5425.6L2669.5 5440.6Z" fill="#b6b6b6" stroke="#6cf9f9"></path><path d="M2337.1 5987L2349.1 5707.3L2064.7 5720.3Z" fill="#e3e4e4" stroke="#6cf9f9"></path><path d="M2064.7 5720.3L2349.1 5707.3L2329.1 5434.6Z" fill="#bdbdbd" stroke="#6cf9f9"></path><path d="M3577.6 3164.9L3520.6 2874.1L3249.2 3177.9Z" fill="#a0a0a0" stroke="#6cf9f9"></path><path d="M2046.7 2021L1770.3 1983L1787.3 2284.7Z" fill="#ebecec" stroke="#6cf9f9"></path><path d="M2623.5 1966L2332.1 2022L2660.5 2274.7Z" fill="#d4d4d4" stroke="#6cf9f9"></path><path d="M2660.5 2274.7L2332.1 2022L2359.1 2307.7Z" fill="#a7a7a7" stroke="#6cf9f9"></path><path d="M2046.7 2021L2090.7 1714.3L1770.3 1983Z" fill="#c5c5c5" stroke="#6cf9f9"></path><path d="M596.8 5156.9L854.2 5450.6L876.2 5123.9Z" fill="#e3e4e4" stroke="#6cf9f9"></path><path d="M1183.5 5689.3L1476.9 5740.3L1481.9 5451.6Z" fill="#c5c5c5" stroke="#6cf9f9"></path><path d="M566.8 5426.6L854.2 5450.6L596.8 5156.9Z" fill="#c5c5c5" stroke="#6cf9f9"></path><path d="M3248.2 2316.7L2925.8 2260.7L2918.8 2582.4Z" fill="#cccdcd" stroke="#6cf9f9"></path><path d="M1770.3 1983L1489.9 2014L1497.9 2270.7Z" fill="#b6b6b6" stroke="#6cf9f9"></path><path d="M315.4 3712.3L271.4 3398.6L0 3437.6Z" fill="#c5c5c5" stroke="#6cf9f9"></path><path d="M0 3712.3L315.4 3712.3L0 3437.6Z" fill="#dcdcdc" stroke="#6cf9f9"></path><path d="M0 3712.3L0 3970L315.4 3712.3Z" fill="#dcdcdc" stroke="#6cf9f9"></path><path d="M268.4 4281.7L0 4567.4L310.4 4587.4Z" fill="#a0a0a0" stroke="#6cf9f9"></path><path d="M3528.6 5116.9L3571.6 4829.1L3237.2 4865.1Z" fill="#b6b6b6" stroke="#6cf9f9"></path><path d="M3840 4320.7L3840 4028L3567.6 4282.7Z" fill="#a0a0a0" stroke="#6cf9f9"></path><path d="M3840 4028L3840 3740.3L3540.6 4013Z" fill="#c5c5c5" stroke="#6cf9f9"></path><path d="M3528.6 5116.9L3237.2 4865.1L3241.2 5162.9Z" fill="#ebecec" stroke="#6cf9f9"></path><path d="M0 3437.6L271.4 3398.6L0 3145.9Z" fill="#afafaf" stroke="#6cf9f9"></path><path d="M1183.5 5689.3L1481.9 5451.6L1198.5 5459.6Z" fill="#afafaf" stroke="#6cf9f9"></path><path d="M3840 4028L3540.6 4013L3567.6 4282.7Z" fill="#ebecec" stroke="#6cf9f9"></path><path d="M3577.6 3164.9L3840 2868.1L3520.6 2874.1Z" fill="#ebecec" stroke="#6cf9f9"></path><path d="M3840 4320.7L3567.6 4282.7L3536.6 4571.4Z" fill="#b6b6b6" stroke="#6cf9f9"></path><path d="M0 3970L0 4296.7L268.4 4281.7Z" fill="#afafaf" stroke="#6cf9f9"></path><path d="M854.2 5450.6L1183.5 5689.3L1198.5 5459.6Z" fill="#afafaf" stroke="#6cf9f9"></path><path d="M0 3145.9L271.4 3398.6L274.4 3171.9Z" fill="#d4d4d4" stroke="#6cf9f9"></path><path d="M2964.8 5686.3L2643.5 5692.3L2920.8 5977Z" fill="#ebecec" stroke="#6cf9f9"></path><path d="M2349.1 5707.3L2643.5 5692.3L2329.1 5434.6Z" fill="#d4d4d4" stroke="#6cf9f9"></path><path d="M3840 4605.4L3840 4320.7L3536.6 4571.4Z" fill="#cccdcd" stroke="#6cf9f9"></path><path d="M3840 3740.3L3840 3403.6L3557.6 3722.3Z" fill="#ebecec" stroke="#6cf9f9"></path><path d="M1489.9 2014L1205.5 1994L1183.5 2256.7Z" fill="#cccdcd" stroke="#6cf9f9"></path><path d="M898.2 2314.7L561.8 2292.7L577.8 2557.4Z" fill="#c5c5c5" stroke="#6cf9f9"></path><path d="M1503.9 1695.3L1205.5 1994L1489.9 2014Z" fill="#a7a7a7" stroke="#6cf9f9"></path><path d="M0 4296.7L0 4567.4L268.4 4281.7Z" fill="#c5c5c5" stroke="#6cf9f9"></path><path d="M313.4 5174.9L566.8 5426.6L596.8 5156.9Z" fill="#c5c5c5" stroke="#6cf9f9"></path><path d="M2978.8 2033L2623.5 1966L2660.5 2274.7Z" fill="#a7a7a7" stroke="#6cf9f9"></path><path d="M2332.1 2022L2090.7 1714.3L2046.7 2021Z" fill="#dcdcdc" stroke="#6cf9f9"></path><path d="M1770.3 1983L1503.9 1695.3L1489.9 2014Z" fill="#cccdcd" stroke="#6cf9f9"></path><path d="M2978.8 2033L2660.5 2274.7L2925.8 2260.7Z" fill="#bdbdbd" stroke="#6cf9f9"></path><path d="M3551.6 5432.6L3528.6 5116.9L3241.2 5162.9Z" fill="#dcdcdc" stroke="#6cf9f9"></path><path d="M3571.6 4829.1L3840 4605.4L3536.6 4571.4Z" fill="#afafaf" stroke="#6cf9f9"></path><path d="M3231.2 5442.6L3241.2 5162.9L2981.8 5425.6Z" fill="#e3e4e4" stroke="#6cf9f9"></path><path d="M0 2878.1L274.4 3171.9L313.4 2882.1Z" fill="#a7a7a7" stroke="#6cf9f9"></path><path d="M0 2878.1L0 3145.9L274.4 3171.9Z" fill="#a0a0a0" stroke="#6cf9f9"></path><path d="M3550.6 2285.7L3248.2 2316.7L3246.2 2552.4Z" fill="#a0a0a0" stroke="#6cf9f9"></path><path d="M3246.2 2552.4L3248.2 2316.7L2918.8 2582.4Z" fill="#b6b6b6" stroke="#6cf9f9"></path><path d="M3550.6 2596.4L3253.2 2838.1L3520.6 2874.1Z" fill="#c5c5c5" stroke="#6cf9f9"></path><path d="M2964.8 5686.3L3231.2 5442.6L2981.8 5425.6Z" fill="#e3e4e4" stroke="#6cf9f9"></path><path d="M313.4 5174.9L596.8 5156.9L307.4 4860.1Z" fill="#d4d4d4" stroke="#6cf9f9"></path><path d="M854.2 5450.6L920.2 5743.3L1183.5 5689.3Z" fill="#c5c5c5" stroke="#6cf9f9"></path><path d="M0 5137.9L313.4 5174.9L307.4 4860.1Z" fill="#c5c5c5" stroke="#6cf9f9"></path><path d="M3840 3403.6L3840 3138.9L3577.6 3164.9Z" fill="#a7a7a7" stroke="#6cf9f9"></path><path d="M3840 4876.1L3840 4605.4L3571.6 4829.1Z" fill="#afafaf" stroke="#6cf9f9"></path><path d="M897.2 2029L561.8 2292.7L898.2 2314.7Z" fill="#dcdcdc" stroke="#6cf9f9"></path><path d="M577.8 2557.4L272.4 2544.4L313.4 2882.1Z" fill="#bdbdbd" stroke="#6cf9f9"></path><path d="M3840 2868.1L3550.6 2596.4L3520.6 2874.1Z" fill="#bdbdbd" stroke="#6cf9f9"></path><path d="M2643.5 5692.3L2964.8 5686.3L2669.5 5440.6Z" fill="#afafaf" stroke="#6cf9f9"></path><path d="M2337.1 5987L2643.5 5692.3L2349.1 5707.3Z" fill="#d4d4d4" stroke="#6cf9f9"></path><path d="M1205.5 1994L897.2 2029L1183.5 2256.7Z" fill="#bdbdbd" stroke="#6cf9f9"></path><path d="M561.8 2292.7L272.4 2544.4L577.8 2557.4Z" fill="#cccdcd" stroke="#6cf9f9"></path><path d="M1803.3 6035L2061.7 5977L1778.3 5740.3Z" fill="#bdbdbd" stroke="#6cf9f9"></path><path d="M1778.3 5740.3L2061.7 5977L2064.7 5720.3Z" fill="#a0a0a0" stroke="#6cf9f9"></path><path d="M1803.3 6035L1778.3 5740.3L1440.9 6001Z" fill="#cccdcd" stroke="#6cf9f9"></path><path d="M595.8 5749.3L920.2 5743.3L854.2 5450.6Z" fill="#bdbdbd" stroke="#6cf9f9"></path><path d="M1440.9 6001L1778.3 5740.3L1476.9 5740.3Z" fill="#c5c5c5" stroke="#6cf9f9"></path><path d="M3271.2 1979L2978.8 2033L3248.2 2316.7Z" fill="#bdbdbd" stroke="#6cf9f9"></path><path d="M3248.2 2316.7L2978.8 2033L2925.8 2260.7Z" fill="#d4d4d4" stroke="#6cf9f9"></path><path d="M0 4567.4L0 4833.1L310.4 4587.4Z" fill="#cccdcd" stroke="#6cf9f9"></path><path d="M0 2605.4L0 2878.1L313.4 2882.1Z" fill="#d4d4d4" stroke="#6cf9f9"></path><path d="M2061.7 5977L2337.1 5987L2064.7 5720.3Z" fill="#d4d4d4" stroke="#6cf9f9"></path><path d="M2339.1 1700.3L2332.1 2022L2623.5 1966Z" fill="#bdbdbd" stroke="#6cf9f9"></path><path d="M2339.1 1700.3L2090.7 1714.3L2332.1 2022Z" fill="#bdbdbd" stroke="#6cf9f9"></path><path d="M1205.5 1994L866.2 1732.3L897.2 2029Z" fill="#ebecec" stroke="#6cf9f9"></path><path d="M1440.9 6001L1476.9 5740.3L1212.5 6000Z" fill="#b6b6b6" stroke="#6cf9f9"></path><path d="M2061.7 5977L2071.7 6252.7L2337.1 5987Z" fill="#afafaf" stroke="#6cf9f9"></path><path d="M3840 3138.9L3840 2868.1L3577.6 3164.9Z" fill="#dcdcdc" stroke="#6cf9f9"></path><path d="M3550.6 2596.4L3550.6 2285.7L3246.2 2552.4Z" fill="#cccdcd" stroke="#6cf9f9"></path><path d="M3840 5169.9L3840 4876.1L3528.6 5116.9Z" fill="#a7a7a7" stroke="#6cf9f9"></path><path d="M3528.6 5116.9L3840 4876.1L3571.6 4829.1Z" fill="#dcdcdc" stroke="#6cf9f9"></path><path d="M1212.5 6000L1476.9 5740.3L1183.5 5689.3Z" fill="#a0a0a0" stroke="#6cf9f9"></path><path d="M2090.7 1714.3L1740.3 1679.3L1770.3 1983Z" fill="#d4d4d4" stroke="#6cf9f9"></path><path d="M2670.5 1685.3L2339.1 1700.3L2623.5 1966Z" fill="#cccdcd" stroke="#6cf9f9"></path><path d="M2032.7 1424.6L1757.3 1453.6L1740.3 1679.3Z" fill="#a0a0a0" stroke="#6cf9f9"></path><path d="M1740.3 1679.3L1503.9 1695.3L1770.3 1983Z" fill="#bdbdbd" stroke="#6cf9f9"></path><path d="M313.4 5174.9L304.4 5429.6L566.8 5426.6Z" fill="#bdbdbd" stroke="#6cf9f9"></path><path d="M566.8 5426.6L595.8 5749.3L854.2 5450.6Z" fill="#b6b6b6" stroke="#6cf9f9"></path><path d="M0 5438.6L304.4 5429.6L313.4 5174.9Z" fill="#cccdcd" stroke="#6cf9f9"></path><path d="M851.2 6010L1212.5 6000L920.2 5743.3Z" fill="#ebecec" stroke="#6cf9f9"></path><path d="M920.2 5743.3L1212.5 6000L1183.5 5689.3Z" fill="#ebecec" stroke="#6cf9f9"></path><path d="M1755.3 6297.7L2071.7 6252.7L1803.3 6035Z" fill="#d4d4d4" stroke="#6cf9f9"></path><path d="M561.8 2292.7L317.4 2266.7L272.4 2544.4Z" fill="#ebecec" stroke="#6cf9f9"></path><path d="M272.4 2544.4L0 2605.4L313.4 2882.1Z" fill="#b6b6b6" stroke="#6cf9f9"></path><path d="M315.4 1978L317.4 2266.7L561.8 2292.7Z" fill="#a7a7a7" stroke="#6cf9f9"></path><path d="M607.8 1974L561.8 2292.7L897.2 2029Z" fill="#a7a7a7" stroke="#6cf9f9"></path><path d="M3257.2 5712.3L3551.6 5432.6L3231.2 5442.6Z" fill="#cccdcd" stroke="#6cf9f9"></path><path d="M3231.2 5442.6L3551.6 5432.6L3241.2 5162.9Z" fill="#e3e4e4" stroke="#6cf9f9"></path><path d="M3257.2 5712.3L3231.2 5442.6L2964.8 5686.3Z" fill="#bdbdbd" stroke="#6cf9f9"></path><path d="M1455.9 1434.6L1191.5 1711.3L1503.9 1695.3Z" fill="#b6b6b6" stroke="#6cf9f9"></path><path d="M1503.9 1695.3L1191.5 1711.3L1205.5 1994Z" fill="#e3e4e4" stroke="#6cf9f9"></path><path d="M2920.8 5977L3257.2 5712.3L2964.8 5686.3Z" fill="#bdbdbd" stroke="#6cf9f9"></path><path d="M3840 2581.4L3550.6 2285.7L3550.6 2596.4Z" fill="#bdbdbd" stroke="#6cf9f9"></path><path d="M2924.8 1698.3L2670.5 1685.3L2623.5 1966Z" fill="#dcdcdc" stroke="#6cf9f9"></path><path d="M2364.1 6308.7L2670.5 6024L2337.1 5987Z" fill="#bdbdbd" stroke="#6cf9f9"></path><path d="M2337.1 5987L2670.5 6024L2643.5 5692.3Z" fill="#e3e4e4" stroke="#6cf9f9"></path><path d="M0 4833.1L0 5137.9L307.4 4860.1Z" fill="#afafaf" stroke="#6cf9f9"></path><path d="M328.4 5704.3L595.8 5749.3L566.8 5426.6Z" fill="#c5c5c5" stroke="#6cf9f9"></path><path d="M328.4 5704.3L566.8 5426.6L304.4 5429.6Z" fill="#afafaf" stroke="#6cf9f9"></path><path d="M0 2315.7L0 2605.4L272.4 2544.4Z" fill="#cccdcd" stroke="#6cf9f9"></path><path d="M866.2 1732.3L607.8 1974L897.2 2029Z" fill="#a7a7a7" stroke="#6cf9f9"></path><path d="M2924.8 1698.3L2623.5 1966L2978.8 2033Z" fill="#afafaf" stroke="#6cf9f9"></path><path d="M2032.7 1424.6L1740.3 1679.3L2090.7 1714.3Z" fill="#bdbdbd" stroke="#6cf9f9"></path><path d="M3840 2868.1L3840 2581.4L3550.6 2596.4Z" fill="#a7a7a7" stroke="#6cf9f9"></path><path d="M3551.6 5432.6L3840 5169.9L3528.6 5116.9Z" fill="#a0a0a0" stroke="#6cf9f9"></path><path d="M3840 5433.6L3840 5169.9L3551.6 5432.6Z" fill="#b6b6b6" stroke="#6cf9f9"></path><path d="M3542.6 1983L3271.2 1979L3550.6 2285.7Z" fill="#a0a0a0" stroke="#6cf9f9"></path><path d="M3550.6 2285.7L3271.2 1979L3248.2 2316.7Z" fill="#bdbdbd" stroke="#6cf9f9"></path><path d="M2670.5 6024L2920.8 5977L2643.5 5692.3Z" fill="#b6b6b6" stroke="#6cf9f9"></path><path d="M1191.5 1711.3L866.2 1732.3L1205.5 1994Z" fill="#dcdcdc" stroke="#6cf9f9"></path><path d="M1456.9 6259.7L1803.3 6035L1440.9 6001Z" fill="#b6b6b6" stroke="#6cf9f9"></path><path d="M1803.3 6035L2071.7 6252.7L2061.7 5977Z" fill="#a7a7a7" stroke="#6cf9f9"></path><path d="M2670.5 6024L2940.8 6301.7L2920.8 5977Z" fill="#d4d4d4" stroke="#6cf9f9"></path><path d="M595.8 5749.3L851.2 6010L920.2 5743.3Z" fill="#afafaf" stroke="#6cf9f9"></path><path d="M1212.5 6000L1456.9 6259.7L1440.9 6001Z" fill="#afafaf" stroke="#6cf9f9"></path><path d="M3271.2 1979L2924.8 1698.3L2978.8 2033Z" fill="#a7a7a7" stroke="#6cf9f9"></path><path d="M0 5438.6L328.4 5704.3L304.4 5429.6Z" fill="#bdbdbd" stroke="#6cf9f9"></path><path d="M595.8 5749.3L616.8 5976L851.2 6010Z" fill="#a0a0a0" stroke="#6cf9f9"></path><path d="M2032.7 1424.6L2090.7 1714.3L2348.1 1433.6Z" fill="#b6b6b6" stroke="#6cf9f9"></path><path d="M1740.3 1679.3L1757.3 1453.6L1503.9 1695.3Z" fill="#b6b6b6" stroke="#6cf9f9"></path><path d="M1191.5 1711.3L905.2 1407.6L866.2 1732.3Z" fill="#a7a7a7" stroke="#6cf9f9"></path><path d="M2090.7 1714.3L2339.1 1700.3L2348.1 1433.6Z" fill="#afafaf" stroke="#6cf9f9"></path><path d="M1210.5 6303.7L1456.9 6259.7L1212.5 6000Z" fill="#bdbdbd" stroke="#6cf9f9"></path><path d="M1456.9 6259.7L1755.3 6297.7L1803.3 6035Z" fill="#d4d4d4" stroke="#6cf9f9"></path><path d="M2348.1 1433.6L2339.1 1700.3L2644.5 1435.6Z" fill="#d4d4d4" stroke="#6cf9f9"></path><path d="M0 1986L0 2315.7L317.4 2266.7Z" fill="#ebecec" stroke="#6cf9f9"></path><path d="M317.4 2266.7L0 2315.7L272.4 2544.4Z" fill="#c5c5c5" stroke="#6cf9f9"></path><path d="M315.4 1978L561.8 2292.7L607.8 1974Z" fill="#e3e4e4" stroke="#6cf9f9"></path><path d="M328.4 5704.3L616.8 5976L595.8 5749.3Z" fill="#cccdcd" stroke="#6cf9f9"></path><path d="M920.2 6292.7L1210.5 6303.7L1212.5 6000Z" fill="#afafaf" stroke="#6cf9f9"></path><path d="M0 5137.9L0 5438.6L313.4 5174.9Z" fill="#b6b6b6" stroke="#6cf9f9"></path><path d="M328.4 5704.3L262.4 6009L616.8 5976Z" fill="#b6b6b6" stroke="#6cf9f9"></path><path d="M304.4 1733.3L315.4 1978L607.8 1974Z" fill="#d4d4d4" stroke="#6cf9f9"></path><path d="M2644.5 1435.6L2339.1 1700.3L2670.5 1685.3Z" fill="#a0a0a0" stroke="#6cf9f9"></path><path d="M2359.1 6543.4L2364.1 6308.7L2080.7 6578.4Z" fill="#cccdcd" stroke="#6cf9f9"></path><path d="M2071.7 6252.7L2364.1 6308.7L2337.1 5987Z" fill="#a0a0a0" stroke="#6cf9f9"></path><path d="M1476.9 1172.9L1455.9 1434.6L1757.3 1453.6Z" fill="#ebecec" stroke="#6cf9f9"></path><path d="M1757.3 1453.6L1455.9 1434.6L1503.9 1695.3Z" fill="#d4d4d4" stroke="#6cf9f9"></path><path d="M866.2 1732.3L586.8 1686.3L607.8 1974Z" fill="#b6b6b6" stroke="#6cf9f9"></path><path d="M3840 5739.3L3840 5433.6L3551.6 5432.6Z" fill="#ebecec" stroke="#6cf9f9"></path><path d="M3541.6 5744.3L3551.6 5432.6L3257.2 5712.3Z" fill="#c5c5c5" stroke="#6cf9f9"></path><path d="M3541.6 5744.3L3257.2 5712.3L3279.2 5983Z" fill="#cccdcd" stroke="#6cf9f9"></path><path d="M3279.2 5983L3257.2 5712.3L2920.8 5977Z" fill="#c5c5c5" stroke="#6cf9f9"></path><path d="M3840 2581.4L3840 2288.7L3550.6 2285.7Z" fill="#a0a0a0" stroke="#6cf9f9"></path><path d="M3271.2 1979L3270.2 1678.3L2924.8 1698.3Z" fill="#afafaf" stroke="#6cf9f9"></path><path d="M3840 2022L3542.6 1983L3550.6 2285.7Z" fill="#b6b6b6" stroke="#6cf9f9"></path><path d="M3215.2 6289.7L3279.2 5983L2920.8 5977Z" fill="#ebecec" stroke="#6cf9f9"></path><path d="M1456.9 6259.7L1466.9 6541.4L1755.3 6297.7Z" fill="#e3e4e4" stroke="#6cf9f9"></path><path d="M2080.7 6578.4L2364.1 6308.7L2071.7 6252.7Z" fill="#ebecec" stroke="#6cf9f9"></path><path d="M920.2 6292.7L1212.5 6000L851.2 6010Z" fill="#d4d4d4" stroke="#6cf9f9"></path><path d="M2364.1 6308.7L2635.5 6305.7L2670.5 6024Z" fill="#e3e4e4" stroke="#6cf9f9"></path><path d="M905.2 1407.6L1195.5 1431.6L1175.5 1129.9Z" fill="#dcdcdc" stroke="#6cf9f9"></path><path d="M1455.9 1434.6L1195.5 1431.6L1191.5 1711.3Z" fill="#a7a7a7" stroke="#6cf9f9"></path><path d="M2946.8 1404.6L2644.5 1435.6L2924.8 1698.3Z" fill="#c5c5c5" stroke="#6cf9f9"></path><path d="M2924.8 1698.3L2644.5 1435.6L2670.5 1685.3Z" fill="#ebecec" stroke="#6cf9f9"></path><path d="M2329.1 1146.9L2049.7 1150.9L2032.7 1424.6Z" fill="#ebecec" stroke="#6cf9f9"></path><path d="M615.8 1412.6L586.8 1686.3L866.2 1732.3Z" fill="#dcdcdc" stroke="#6cf9f9"></path><path d="M315.4 1978L0 1986L317.4 2266.7Z" fill="#bdbdbd" stroke="#6cf9f9"></path><path d="M3510.6 1688.3L3271.2 1979L3542.6 1983Z" fill="#d4d4d4" stroke="#6cf9f9"></path><path d="M3510.6 1688.3L3270.2 1678.3L3271.2 1979Z" fill="#bdbdbd" stroke="#6cf9f9"></path><path d="M582.8 6283.7L851.2 6010L616.8 5976Z" fill="#d4d4d4" stroke="#6cf9f9"></path><path d="M582.8 6283.7L920.2 6292.7L851.2 6010Z" fill="#a0a0a0" stroke="#6cf9f9"></path><path d="M2635.5 6305.7L2940.8 6301.7L2670.5 6024Z" fill="#e3e4e4" stroke="#6cf9f9"></path><path d="M3567.6 6000L3840 5739.3L3541.6 5744.3Z" fill="#a0a0a0" stroke="#6cf9f9"></path><path d="M1195.5 1431.6L905.2 1407.6L1191.5 1711.3Z" fill="#bdbdbd" stroke="#6cf9f9"></path><path d="M1476.9 1172.9L1195.5 1431.6L1455.9 1434.6Z" fill="#b6b6b6" stroke="#6cf9f9"></path><path d="M3840 2288.7L3840 2022L3550.6 2285.7Z" fill="#b6b6b6" stroke="#6cf9f9"></path><path d="M311.4 1413.6L304.4 1733.3L586.8 1686.3Z" fill="#cccdcd" stroke="#6cf9f9"></path><path d="M586.8 1686.3L304.4 1733.3L607.8 1974Z" fill="#a0a0a0" stroke="#6cf9f9"></path><path d="M0 5438.6L0 5743.3L328.4 5704.3Z" fill="#dcdcdc" stroke="#6cf9f9"></path><path d="M3270.2 1678.3L2946.8 1404.6L2924.8 1698.3Z" fill="#cccdcd" stroke="#6cf9f9"></path><path d="M2329.1 1146.9L2032.7 1424.6L2348.1 1433.6Z" fill="#d4d4d4" stroke="#6cf9f9"></path><path d="M2032.7 1424.6L1747.3 1145.9L1757.3 1453.6Z" fill="#a0a0a0" stroke="#6cf9f9"></path><path d="M3261.2 1408.6L2946.8 1404.6L3270.2 1678.3Z" fill="#afafaf" stroke="#6cf9f9"></path><path d="M0 1742.3L0 1986L315.4 1978Z" fill="#bdbdbd" stroke="#6cf9f9"></path><path d="M3567.6 6000L3541.6 5744.3L3279.2 5983Z" fill="#ebecec" stroke="#6cf9f9"></path><path d="M3541.6 5744.3L3840 5739.3L3551.6 5432.6Z" fill="#e3e4e4" stroke="#6cf9f9"></path><path d="M3519.6 6310.7L3567.6 6000L3279.2 5983Z" fill="#ebecec" stroke="#6cf9f9"></path><path d="M0 5743.3L262.4 6009L328.4 5704.3Z" fill="#e3e4e4" stroke="#6cf9f9"></path><path d="M1150.5 6544.4L1466.9 6541.4L1210.5 6303.7Z" fill="#ebecec" stroke="#6cf9f9"></path><path d="M1210.5 6303.7L1466.9 6541.4L1456.9 6259.7Z" fill="#afafaf" stroke="#6cf9f9"></path><path d="M2364.1 6308.7L2359.1 6543.4L2635.5 6305.7Z" fill="#a7a7a7" stroke="#6cf9f9"></path><path d="M2635.5 6305.7L2651.5 6548.4L2940.8 6301.7Z" fill="#ebecec" stroke="#6cf9f9"></path><path d="M1150.5 6544.4L1210.5 6303.7L920.2 6292.7Z" fill="#d4d4d4" stroke="#6cf9f9"></path><path d="M3840 1692.3L3510.6 1688.3L3542.6 1983Z" fill="#cccdcd" stroke="#6cf9f9"></path><path d="M2080.7 6578.4L2071.7 6252.7L1803.3 6589.4Z" fill="#dcdcdc" stroke="#6cf9f9"></path><path d="M1803.3 6589.4L2071.7 6252.7L1755.3 6297.7Z" fill="#ebecec" stroke="#6cf9f9"></path><path d="M1466.9 6541.4L1803.3 6589.4L1755.3 6297.7Z" fill="#cccdcd" stroke="#6cf9f9"></path><path d="M2329.1 1146.9L2348.1 1433.6L2644.5 1435.6Z" fill="#b6b6b6" stroke="#6cf9f9"></path><path d="M2049.7 1150.9L1747.3 1145.9L2032.7 1424.6Z" fill="#b6b6b6" stroke="#6cf9f9"></path><path d="M1747.3 1145.9L1476.9 1172.9L1757.3 1453.6Z" fill="#e3e4e4" stroke="#6cf9f9"></path><path d="M2940.8 6301.7L3215.2 6289.7L2920.8 5977Z" fill="#cccdcd" stroke="#6cf9f9"></path><path d="M2958.8 6564.4L3215.2 6289.7L2940.8 6301.7Z" fill="#ebecec" stroke="#6cf9f9"></path><path d="M262.4 6009L582.8 6283.7L616.8 5976Z" fill="#b6b6b6" stroke="#6cf9f9"></path><path d="M2685.5 1142.9L2329.1 1146.9L2644.5 1435.6Z" fill="#ebecec" stroke="#6cf9f9"></path><path d="M2049.7 1150.9L1768.3 853.1L1747.3 1145.9Z" fill="#dcdcdc" stroke="#6cf9f9"></path><path d="M2633.5 6838.1L2651.5 6548.4L2359.1 6543.4Z" fill="#a7a7a7" stroke="#6cf9f9"></path><path d="M2359.1 6543.4L2651.5 6548.4L2635.5 6305.7Z" fill="#dcdcdc" stroke="#6cf9f9"></path><path d="M911.2 6580.4L1150.5 6544.4L920.2 6292.7Z" fill="#afafaf" stroke="#6cf9f9"></path><path d="M1466.9 6541.4L1760.3 6859.1L1803.3 6589.4Z" fill="#bdbdbd" stroke="#6cf9f9"></path><path d="M861.2 1168.9L615.8 1412.6L905.2 1407.6Z" fill="#c5c5c5" stroke="#6cf9f9"></path><path d="M905.2 1407.6L615.8 1412.6L866.2 1732.3Z" fill="#cccdcd" stroke="#6cf9f9"></path><path d="M304.4 1733.3L0 1742.3L315.4 1978Z" fill="#a0a0a0" stroke="#6cf9f9"></path><path d="M3510.6 1403.6L3270.2 1678.3L3510.6 1688.3Z" fill="#dcdcdc" stroke="#6cf9f9"></path><path d="M3510.6 1403.6L3261.2 1408.6L3270.2 1678.3Z" fill="#a7a7a7" stroke="#6cf9f9"></path><path d="M2946.8 1404.6L2685.5 1142.9L2644.5 1435.6Z" fill="#a0a0a0" stroke="#6cf9f9"></path><path d="M0 5743.3L0 5967L262.4 6009Z" fill="#e3e4e4" stroke="#6cf9f9"></path><path d="M262.4 6009L282.4 6281.7L582.8 6283.7Z" fill="#d4d4d4" stroke="#6cf9f9"></path><path d="M2928.8 1175.9L2685.5 1142.9L2946.8 1404.6Z" fill="#b6b6b6" stroke="#6cf9f9"></path><path d="M1466.9 852.1L1476.9 1172.9L1747.3 1145.9Z" fill="#e3e4e4" stroke="#6cf9f9"></path><path d="M1466.9 852.1L1175.5 1129.9L1476.9 1172.9Z" fill="#afafaf" stroke="#6cf9f9"></path><path d="M1476.9 1172.9L1175.5 1129.9L1195.5 1431.6Z" fill="#c5c5c5" stroke="#6cf9f9"></path><path d="M1768.3 853.1L2049.7 1150.9L2090.7 823.1Z" fill="#e3e4e4" stroke="#6cf9f9"></path><path d="M0 1460.6L0 1742.3L304.4 1733.3Z" fill="#e3e4e4" stroke="#6cf9f9"></path><path d="M3225.2 1145.9L2928.8 1175.9L2946.8 1404.6Z" fill="#bdbdbd" stroke="#6cf9f9"></path><path d="M569.8 6590.4L911.2 6580.4L582.8 6283.7Z" fill="#cccdcd" stroke="#6cf9f9"></path><path d="M582.8 6283.7L911.2 6580.4L920.2 6292.7Z" fill="#dcdcdc" stroke="#6cf9f9"></path><path d="M1440.9 6860.1L1760.3 6859.1L1466.9 6541.4Z" fill="#dcdcdc" stroke="#6cf9f9"></path><path d="M2633.5 6838.1L2958.8 6564.4L2651.5 6548.4Z" fill="#afafaf" stroke="#6cf9f9"></path><path d="M2651.5 6548.4L2958.8 6564.4L2940.8 6301.7Z" fill="#dcdcdc" stroke="#6cf9f9"></path><path d="M3840 6300.7L3840 6025L3567.6 6000Z" fill="#bdbdbd" stroke="#6cf9f9"></path><path d="M2332.1 6847.1L2359.1 6543.4L2080.7 6578.4Z" fill="#cccdcd" stroke="#6cf9f9"></path><path d="M3519.6 6310.7L3279.2 5983L3215.2 6289.7Z" fill="#afafaf" stroke="#6cf9f9"></path><path d="M3567.6 6000L3840 6025L3840 5739.3Z" fill="#cccdcd" stroke="#6cf9f9"></path><path d="M1175.5 1129.9L861.2 1168.9L905.2 1407.6Z" fill="#dcdcdc" stroke="#6cf9f9"></path><path d="M615.8 1412.6L311.4 1413.6L586.8 1686.3Z" fill="#bdbdbd" stroke="#6cf9f9"></path><path d="M0 6320.7L282.4 6281.7L262.4 6009Z" fill="#c5c5c5" stroke="#6cf9f9"></path><path d="M3840 2022L3840 1692.3L3542.6 1983Z" fill="#d4d4d4" stroke="#6cf9f9"></path><path d="M3261.2 1408.6L3225.2 1145.9L2946.8 1404.6Z" fill="#d4d4d4" stroke="#6cf9f9"></path><path d="M3268.2 6553.4L3519.6 6310.7L3215.2 6289.7Z" fill="#bdbdbd" stroke="#6cf9f9"></path><path d="M617.8 1166.9L311.4 1413.6L615.8 1412.6Z" fill="#c5c5c5" stroke="#6cf9f9"></path><path d="M3840 1441.6L3510.6 1403.6L3510.6 1688.3Z" fill="#e3e4e4" stroke="#6cf9f9"></path><path d="M1440.9 6860.1L1466.9 6541.4L1150.5 6544.4Z" fill="#e3e4e4" stroke="#6cf9f9"></path><path d="M1803.3 6589.4L2075.7 6879.1L2080.7 6578.4Z" fill="#dcdcdc" stroke="#6cf9f9"></path><path d="M616.8 847.1L617.8 1166.9L861.2 1168.9Z" fill="#c5c5c5" stroke="#6cf9f9"></path><path d="M861.2 1168.9L617.8 1166.9L615.8 1412.6Z" fill="#b6b6b6" stroke="#6cf9f9"></path><path d="M2075.7 6879.1L2332.1 6847.1L2080.7 6578.4Z" fill="#a7a7a7" stroke="#6cf9f9"></path><path d="M2958.8 6564.4L3268.2 6553.4L3215.2 6289.7Z" fill="#dcdcdc" stroke="#6cf9f9"></path><path d="M3519.6 6310.7L3840 6300.7L3567.6 6000Z" fill="#ebecec" stroke="#6cf9f9"></path><path d="M2970.8 6832.1L3268.2 6553.4L2958.8 6564.4Z" fill="#d4d4d4" stroke="#6cf9f9"></path><path d="M1760.3 6859.1L2075.7 6879.1L1803.3 6589.4Z" fill="#ebecec" stroke="#6cf9f9"></path><path d="M2090.7 823.1L2329.1 1146.9L2366.1 844.1Z" fill="#ebecec" stroke="#6cf9f9"></path><path d="M2090.7 823.1L2049.7 1150.9L2329.1 1146.9Z" fill="#a7a7a7" stroke="#6cf9f9"></path><path d="M1175.5 1129.9L887.2 852.1L861.2 1168.9Z" fill="#bdbdbd" stroke="#6cf9f9"></path><path d="M1175.5 6888.1L1440.9 6860.1L1150.5 6544.4Z" fill="#cccdcd" stroke="#6cf9f9"></path><path d="M1760.3 6859.1L2031.7 7132.9L2075.7 6879.1Z" fill="#a0a0a0" stroke="#6cf9f9"></path><path d="M1175.5 6888.1L1150.5 6544.4L911.2 6580.4Z" fill="#b6b6b6" stroke="#6cf9f9"></path><path d="M3510.6 1403.6L3225.2 1145.9L3261.2 1408.6Z" fill="#dcdcdc" stroke="#6cf9f9"></path><path d="M2671.5 865.1L2366.1 844.1L2685.5 1142.9Z" fill="#b6b6b6" stroke="#6cf9f9"></path><path d="M3546.6 1150.9L3225.2 1145.9L3510.6 1403.6Z" fill="#a7a7a7" stroke="#6cf9f9"></path><path d="M291.4 6588.4L569.8 6590.4L582.8 6283.7Z" fill="#bdbdbd" stroke="#6cf9f9"></path><path d="M1768.3 853.1L1466.9 852.1L1747.3 1145.9Z" fill="#a7a7a7" stroke="#6cf9f9"></path><path d="M2343.1 7112.9L2633.5 6838.1L2332.1 6847.1Z" fill="#bdbdbd" stroke="#6cf9f9"></path><path d="M2332.1 6847.1L2633.5 6838.1L2359.1 6543.4Z" fill="#dcdcdc" stroke="#6cf9f9"></path><path d="M2366.1 844.1L2329.1 1146.9L2685.5 1142.9Z" fill="#afafaf" stroke="#6cf9f9"></path><path d="M1768.3 853.1L1794.3 605.4L1466.9 852.1Z" fill="#afafaf" stroke="#6cf9f9"></path><path d="M2671.5 865.1L2685.5 1142.9L2941.8 865.1Z" fill="#a7a7a7" stroke="#6cf9f9"></path><path d="M311.4 1413.6L0 1460.6L304.4 1733.3Z" fill="#afafaf" stroke="#6cf9f9"></path><path d="M0 1122.9L0 1460.6L311.4 1413.6Z" fill="#bdbdbd" stroke="#6cf9f9"></path><path d="M2941.8 865.1L2685.5 1142.9L2928.8 1175.9Z" fill="#c5c5c5" stroke="#6cf9f9"></path><path d="M2049.7 568.4L1794.3 605.4L2090.7 823.1Z" fill="#afafaf" stroke="#6cf9f9"></path><path d="M3530.6 6567.4L3519.6 6310.7L3268.2 6553.4Z" fill="#b6b6b6" stroke="#6cf9f9"></path><path d="M3530.6 6567.4L3840 6300.7L3519.6 6310.7Z" fill="#afafaf" stroke="#6cf9f9"></path><path d="M3840 1692.3L3840 1441.6L3510.6 1688.3Z" fill="#cccdcd" stroke="#6cf9f9"></path><path d="M3225.2 1145.9L2941.8 865.1L2928.8 1175.9Z" fill="#bdbdbd" stroke="#6cf9f9"></path><path d="M893.2 6857.1L1175.5 6888.1L911.2 6580.4Z" fill="#b6b6b6" stroke="#6cf9f9"></path><path d="M1785.3 7153.9L2031.7 7132.9L1760.3 6859.1Z" fill="#c5c5c5" stroke="#6cf9f9"></path><path d="M0 5967L0 6320.7L262.4 6009Z" fill="#b6b6b6" stroke="#6cf9f9"></path><path d="M282.4 6281.7L291.4 6588.4L582.8 6283.7Z" fill="#e3e4e4" stroke="#6cf9f9"></path><path d="M595.8 6821.1L893.2 6857.1L911.2 6580.4Z" fill="#ebecec" stroke="#6cf9f9"></path><path d="M1187.5 602.4L1171.5 839.1L1466.9 852.1Z" fill="#a7a7a7" stroke="#6cf9f9"></path><path d="M1466.9 852.1L1171.5 839.1L1175.5 1129.9Z" fill="#dcdcdc" stroke="#6cf9f9"></path><path d="M617.8 1166.9L304.4 1118.9L311.4 1413.6Z" fill="#bdbdbd" stroke="#6cf9f9"></path><path d="M2659.5 7163.9L2970.8 6832.1L2633.5 6838.1Z" fill="#cccdcd" stroke="#6cf9f9"></path><path d="M2633.5 6838.1L2970.8 6832.1L2958.8 6564.4Z" fill="#b6b6b6" stroke="#6cf9f9"></path><path d="M3513.6 6849.1L3530.6 6567.4L3268.2 6553.4Z" fill="#afafaf" stroke="#6cf9f9"></path><path d="M595.8 6821.1L911.2 6580.4L569.8 6590.4Z" fill="#ebecec" stroke="#6cf9f9"></path><path d="M0 6320.7L291.4 6588.4L282.4 6281.7Z" fill="#b6b6b6" stroke="#6cf9f9"></path><path d="M3840 1441.6L3546.6 1150.9L3510.6 1403.6Z" fill="#afafaf" stroke="#6cf9f9"></path><path d="M3269.2 849.1L2941.8 865.1L3225.2 1145.9Z" fill="#a7a7a7" stroke="#6cf9f9"></path><path d="M2049.7 568.4L2090.7 823.1L2367.1 588.4Z" fill="#c5c5c5" stroke="#6cf9f9"></path><path d="M616.8 847.1L304.4 1118.9L617.8 1166.9Z" fill="#e3e4e4" stroke="#6cf9f9"></path><path d="M1171.5 839.1L887.2 852.1L1175.5 1129.9Z" fill="#cccdcd" stroke="#6cf9f9"></path><path d="M322.4 6835.1L595.8 6821.1L569.8 6590.4Z" fill="#e3e4e4" stroke="#6cf9f9"></path><path d="M1785.3 7153.9L1760.3 6859.1L1470.9 7165.9Z" fill="#cccdcd" stroke="#6cf9f9"></path><path d="M2075.7 6879.1L2343.1 7112.9L2332.1 6847.1Z" fill="#a7a7a7" stroke="#6cf9f9"></path><path d="M1760.3 6859.1L1440.9 6860.1L1470.9 7165.9Z" fill="#a0a0a0" stroke="#6cf9f9"></path><path d="M1440.9 6860.1L1176.5 7127.9L1470.9 7165.9Z" fill="#afafaf" stroke="#6cf9f9"></path><path d="M2090.7 823.1L2366.1 844.1L2367.1 588.4Z" fill="#a0a0a0" stroke="#6cf9f9"></path><path d="M2090.7 823.1L1794.3 605.4L1768.3 853.1Z" fill="#bdbdbd" stroke="#6cf9f9"></path><path d="M1171.5 839.1L886.2 598.4L887.2 852.1Z" fill="#a7a7a7" stroke="#6cf9f9"></path><path d="M3221.2 7131.9L3248.2 6854.1L2970.8 6832.1Z" fill="#afafaf" stroke="#6cf9f9"></path><path d="M2970.8 6832.1L3248.2 6854.1L3268.2 6553.4Z" fill="#e3e4e4" stroke="#6cf9f9"></path><path d="M3530.6 6567.4L3840 6574.4L3840 6300.7Z" fill="#a0a0a0" stroke="#6cf9f9"></path><path d="M2031.7 7132.9L2343.1 7112.9L2075.7 6879.1Z" fill="#e3e4e4" stroke="#6cf9f9"></path><path d="M1440.9 6860.1L1175.5 6888.1L1176.5 7127.9Z" fill="#afafaf" stroke="#6cf9f9"></path><path d="M2334.1 7434.6L2659.5 7163.9L2343.1 7112.9Z" fill="#ebecec" stroke="#6cf9f9"></path><path d="M886.2 598.4L616.8 847.1L887.2 852.1Z" fill="#afafaf" stroke="#6cf9f9"></path><path d="M887.2 852.1L616.8 847.1L861.2 1168.9Z" fill="#a7a7a7" stroke="#6cf9f9"></path><path d="M2367.1 588.4L2366.1 844.1L2641.5 570.4Z" fill="#dcdcdc" stroke="#6cf9f9"></path><path d="M3523.6 892.1L3269.2 849.1L3225.2 1145.9Z" fill="#e3e4e4" stroke="#6cf9f9"></path><path d="M2641.5 570.4L2366.1 844.1L2671.5 865.1Z" fill="#afafaf" stroke="#6cf9f9"></path><path d="M3523.6 892.1L3225.2 1145.9L3546.6 1150.9Z" fill="#b6b6b6" stroke="#6cf9f9"></path><path d="M2641.5 570.4L2671.5 865.1L2921.8 552.4Z" fill="#bdbdbd" stroke="#6cf9f9"></path><path d="M3513.6 6849.1L3840 6574.4L3530.6 6567.4Z" fill="#e3e4e4" stroke="#6cf9f9"></path><path d="M1176.5 7127.9L1175.5 6888.1L893.2 6857.1Z" fill="#d4d4d4" stroke="#6cf9f9"></path><path d="M1801.3 316.7L1445.9 575.4L1794.3 605.4Z" fill="#a0a0a0" stroke="#6cf9f9"></path><path d="M1794.3 605.4L1445.9 575.4L1466.9 852.1Z" fill="#dcdcdc" stroke="#6cf9f9"></path><path d="M291.4 6588.4L322.4 6835.1L569.8 6590.4Z" fill="#bdbdbd" stroke="#6cf9f9"></path><path d="M870.2 7159.9L1176.5 7127.9L893.2 6857.1Z" fill="#afafaf" stroke="#6cf9f9"></path><path d="M0 6320.7L0 6605.4L291.4 6588.4Z" fill="#a0a0a0" stroke="#6cf9f9"></path><path d="M870.2 7159.9L893.2 6857.1L603.8 7174.9Z" fill="#bdbdbd" stroke="#6cf9f9"></path><path d="M265.4 873.1L0 1122.9L304.4 1118.9Z" fill="#ebecec" stroke="#6cf9f9"></path><path d="M304.4 1118.9L0 1122.9L311.4 1413.6Z" fill="#dcdcdc" stroke="#6cf9f9"></path><path d="M1445.9 575.4L1187.5 602.4L1466.9 852.1Z" fill="#a7a7a7" stroke="#6cf9f9"></path><path d="M3840 1441.6L3840 1130.9L3546.6 1150.9Z" fill="#e3e4e4" stroke="#6cf9f9"></path><path d="M0 6826.1L322.4 6835.1L291.4 6588.4Z" fill="#ebecec" stroke="#6cf9f9"></path><path d="M2343.1 7112.9L2659.5 7163.9L2633.5 6838.1Z" fill="#dcdcdc" stroke="#6cf9f9"></path><path d="M3248.2 6854.1L3513.6 6849.1L3268.2 6553.4Z" fill="#cccdcd" stroke="#6cf9f9"></path><path d="M2086.7 7411.6L2343.1 7112.9L2031.7 7132.9Z" fill="#ebecec" stroke="#6cf9f9"></path><path d="M1780.3 7394.6L2031.7 7132.9L1785.3 7153.9Z" fill="#b6b6b6" stroke="#6cf9f9"></path><path d="M2921.8 552.4L2671.5 865.1L2941.8 865.1Z" fill="#ebecec" stroke="#6cf9f9"></path><path d="M2092.7 249.7L1801.3 316.7L2049.7 568.4Z" fill="#cccdcd" stroke="#6cf9f9"></path><path d="M3221.2 7131.9L3513.6 6849.1L3248.2 6854.1Z" fill="#e3e4e4" stroke="#6cf9f9"></path><path d="M3840 1130.9L3523.6 892.1L3546.6 1150.9Z" fill="#ebecec" stroke="#6cf9f9"></path><path d="M3244.2 591.4L2921.8 552.4L2941.8 865.1Z" fill="#e3e4e4" stroke="#6cf9f9"></path><path d="M310.4 561.4L265.4 873.1L616.8 847.1Z" fill="#dcdcdc" stroke="#6cf9f9"></path><path d="M616.8 847.1L265.4 873.1L304.4 1118.9Z" fill="#bdbdbd" stroke="#6cf9f9"></path><path d="M1187.5 602.4L886.2 598.4L1171.5 839.1Z" fill="#a0a0a0" stroke="#6cf9f9"></path><path d="M1150.5 317.7L886.2 598.4L1187.5 602.4Z" fill="#c5c5c5" stroke="#6cf9f9"></path><path d="M603.8 7174.9L893.2 6857.1L595.8 6821.1Z" fill="#d4d4d4" stroke="#6cf9f9"></path><path d="M1471.9 7425.6L1780.3 7394.6L1470.9 7165.9Z" fill="#dcdcdc" stroke="#6cf9f9"></path><path d="M2659.5 7163.9L2978.8 7152.9L2970.8 6832.1Z" fill="#d4d4d4" stroke="#6cf9f9"></path><path d="M3244.2 591.4L2941.8 865.1L3269.2 849.1Z" fill="#afafaf" stroke="#6cf9f9"></path><path d="M2092.7 249.7L2049.7 568.4L2367.1 588.4Z" fill="#dcdcdc" stroke="#6cf9f9"></path><path d="M2049.7 568.4L1801.3 316.7L1794.3 605.4Z" fill="#b6b6b6" stroke="#6cf9f9"></path><path d="M2978.8 7152.9L3221.2 7131.9L2970.8 6832.1Z" fill="#ebecec" stroke="#6cf9f9"></path><path d="M3513.6 6849.1L3840 6872.1L3840 6574.4Z" fill="#a7a7a7" stroke="#6cf9f9"></path><path d="M0 6605.4L0 6826.1L291.4 6588.4Z" fill="#ebecec" stroke="#6cf9f9"></path><path d="M322.4 6835.1L603.8 7174.9L595.8 6821.1Z" fill="#d4d4d4" stroke="#6cf9f9"></path><path d="M1471.9 7425.6L1470.9 7165.9L1160.5 7429.6Z" fill="#dcdcdc" stroke="#6cf9f9"></path><path d="M1470.9 7165.9L1780.3 7394.6L1785.3 7153.9Z" fill="#a7a7a7" stroke="#6cf9f9"></path><path d="M2659.5 7163.9L2932.8 7427.6L2978.8 7152.9Z" fill="#b6b6b6" stroke="#6cf9f9"></path><path d="M2978.8 7152.9L3274.2 7423.6L3221.2 7131.9Z" fill="#e3e4e4" stroke="#6cf9f9"></path><path d="M3568.6 594.4L3244.2 591.4L3269.2 849.1Z" fill="#afafaf" stroke="#6cf9f9"></path><path d="M3568.6 594.4L3269.2 849.1L3523.6 892.1Z" fill="#afafaf" stroke="#6cf9f9"></path><path d="M1780.3 7394.6L2086.7 7411.6L2031.7 7132.9Z" fill="#afafaf" stroke="#6cf9f9"></path><path d="M287.4 7161.9L603.8 7174.9L322.4 6835.1Z" fill="#b6b6b6" stroke="#6cf9f9"></path><path d="M1160.5 7429.6L1470.9 7165.9L1176.5 7127.9Z" fill="#c5c5c5" stroke="#6cf9f9"></path><path d="M2367.1 588.4L2641.5 570.4L2395.1 270.7Z" fill="#a7a7a7" stroke="#6cf9f9"></path><path d="M2092.7 249.7L2367.1 588.4L2395.1 270.7Z" fill="#ebecec" stroke="#6cf9f9"></path><path d="M1445.9 575.4L1150.5 317.7L1187.5 602.4Z" fill="#ebecec" stroke="#6cf9f9"></path><path d="M3566.6 7160.9L3840 6872.1L3513.6 6849.1Z" fill="#bdbdbd" stroke="#6cf9f9"></path><path d="M1160.5 7429.6L1176.5 7127.9L870.2 7159.9Z" fill="#c5c5c5" stroke="#6cf9f9"></path><path d="M1780.3 7394.6L1798.3 7694.3L2086.7 7411.6Z" fill="#c5c5c5" stroke="#6cf9f9"></path><path d="M2337.1 7683.3L2334.1 7434.6L2086.7 7411.6Z" fill="#b6b6b6" stroke="#6cf9f9"></path><path d="M2086.7 7411.6L2334.1 7434.6L2343.1 7112.9Z" fill="#b6b6b6" stroke="#6cf9f9"></path><path d="M3840 1130.9L3840 845.1L3523.6 892.1Z" fill="#ebecec" stroke="#6cf9f9"></path><path d="M1801.3 316.7L1460.9 308.7L1445.9 575.4Z" fill="#bdbdbd" stroke="#6cf9f9"></path><path d="M0 605.4L0 826.1L265.4 873.1Z" fill="#d4d4d4" stroke="#6cf9f9"></path><path d="M556.8 538.4L616.8 847.1L886.2 598.4Z" fill="#c5c5c5" stroke="#6cf9f9"></path><path d="M265.4 873.1L0 826.1L0 1122.9Z" fill="#dcdcdc" stroke="#6cf9f9"></path><path d="M855.2 249.7L556.8 538.4L886.2 598.4Z" fill="#cccdcd" stroke="#6cf9f9"></path><path d="M2656.5 320.7L2641.5 570.4L2921.8 552.4Z" fill="#afafaf" stroke="#6cf9f9"></path><path d="M1801.3 316.7L1477.9 0L1460.9 308.7Z" fill="#d4d4d4" stroke="#6cf9f9"></path><path d="M2959.8 317.7L2921.8 552.4L3244.2 591.4Z" fill="#dcdcdc" stroke="#6cf9f9"></path><path d="M2959.8 317.7L2656.5 320.7L2921.8 552.4Z" fill="#b6b6b6" stroke="#6cf9f9"></path><path d="M2334.1 7434.6L2646.5 7425.6L2659.5 7163.9Z" fill="#dcdcdc" stroke="#6cf9f9"></path><path d="M3221.2 7131.9L3566.6 7160.9L3513.6 6849.1Z" fill="#a0a0a0" stroke="#6cf9f9"></path><path d="M2656.5 320.7L2395.1 270.7L2641.5 570.4Z" fill="#cccdcd" stroke="#6cf9f9"></path><path d="M855.2 249.7L1150.5 317.7L916.2 0Z" fill="#bdbdbd" stroke="#6cf9f9"></path><path d="M1460.9 308.7L1150.5 317.7L1445.9 575.4Z" fill="#cccdcd" stroke="#6cf9f9"></path><path d="M916.2 7445.6L1160.5 7429.6L870.2 7159.9Z" fill="#afafaf" stroke="#6cf9f9"></path><path d="M1471.9 7425.6L1798.3 7694.3L1780.3 7394.6Z" fill="#afafaf" stroke="#6cf9f9"></path><path d="M0 6826.1L287.4 7161.9L322.4 6835.1Z" fill="#dcdcdc" stroke="#6cf9f9"></path><path d="M603.8 7174.9L916.2 7445.6L870.2 7159.9Z" fill="#c5c5c5" stroke="#6cf9f9"></path><path d="M3840 845.1L3568.6 594.4L3523.6 892.1Z" fill="#dcdcdc" stroke="#6cf9f9"></path><path d="M299.4 258.7L310.4 561.4L556.8 538.4Z" fill="#dcdcdc" stroke="#6cf9f9"></path><path d="M556.8 538.4L310.4 561.4L616.8 847.1Z" fill="#a0a0a0" stroke="#6cf9f9"></path><path d="M3274.2 7423.6L3566.6 7160.9L3221.2 7131.9Z" fill="#d4d4d4" stroke="#6cf9f9"></path><path d="M2629.5 7710.3L2932.8 7427.6L2646.5 7425.6Z" fill="#e3e4e4" stroke="#6cf9f9"></path><path d="M2646.5 7425.6L2932.8 7427.6L2659.5 7163.9Z" fill="#bdbdbd" stroke="#6cf9f9"></path><path d="M3245.2 260.7L2959.8 317.7L3244.2 591.4Z" fill="#b6b6b6" stroke="#6cf9f9"></path><path d="M2397.1 0L2092.7 249.7L2395.1 270.7Z" fill="#e3e4e4" stroke="#6cf9f9"></path><path d="M573.8 7453.6L916.2 7445.6L603.8 7174.9Z" fill="#afafaf" stroke="#6cf9f9"></path><path d="M1456.9 7711.3L1798.3 7694.3L1471.9 7425.6Z" fill="#dcdcdc" stroke="#6cf9f9"></path><path d="M1198.5 0L1150.5 317.7L1460.9 308.7Z" fill="#d4d4d4" stroke="#6cf9f9"></path><path d="M1150.5 317.7L855.2 249.7L886.2 598.4Z" fill="#a0a0a0" stroke="#6cf9f9"></path><path d="M0 261.7L0 605.4L310.4 561.4Z" fill="#a0a0a0" stroke="#6cf9f9"></path><path d="M310.4 561.4L0 605.4L265.4 873.1Z" fill="#cccdcd" stroke="#6cf9f9"></path><path d="M0 6826.1L0 7151.9L287.4 7161.9Z" fill="#a0a0a0" stroke="#6cf9f9"></path><path d="M287.4 7161.9L573.8 7453.6L603.8 7174.9Z" fill="#e3e4e4" stroke="#6cf9f9"></path><path d="M2932.8 7427.6L3274.2 7423.6L2978.8 7152.9Z" fill="#a7a7a7" stroke="#6cf9f9"></path><path d="M274.4 7444.6L573.8 7453.6L287.4 7161.9Z" fill="#cccdcd" stroke="#6cf9f9"></path><path d="M1456.9 7711.3L1471.9 7425.6L1160.5 7429.6Z" fill="#dcdcdc" stroke="#6cf9f9"></path><path d="M1456.9 7711.3L1160.5 7429.6L1179.5 7721.3Z" fill="#bdbdbd" stroke="#6cf9f9"></path><path d="M2334.1 7434.6L2337.1 7683.3L2646.5 7425.6Z" fill="#afafaf" stroke="#6cf9f9"></path><path d="M2932.8 7427.6L3240.2 7680.3L3274.2 7423.6Z" fill="#c5c5c5" stroke="#6cf9f9"></path><path d="M3560.6 7420.6L3840 7176.9L3566.6 7160.9Z" fill="#a7a7a7" stroke="#6cf9f9"></path><path d="M3566.6 7160.9L3840 7176.9L3840 6872.1Z" fill="#dcdcdc" stroke="#6cf9f9"></path><path d="M2053.7 7707.3L2337.1 7683.3L2086.7 7411.6Z" fill="#d4d4d4" stroke="#6cf9f9"></path><path d="M1798.3 7694.3L2053.7 7707.3L2086.7 7411.6Z" fill="#a7a7a7" stroke="#6cf9f9"></path><path d="M3840 845.1L3840 542.4L3568.6 594.4Z" fill="#ebecec" stroke="#6cf9f9"></path><path d="M3521.6 307.7L3245.2 260.7L3244.2 591.4Z" fill="#e3e4e4" stroke="#6cf9f9"></path><path d="M3521.6 307.7L3244.2 591.4L3568.6 594.4Z" fill="#b6b6b6" stroke="#6cf9f9"></path><path d="M2397.1 0L2395.1 270.7L2671.5 0Z" fill="#bdbdbd" stroke="#6cf9f9"></path><path d="M2043.7 0L1796.3 0L2092.7 249.7Z" fill="#ebecec" stroke="#6cf9f9"></path><path d="M855.2 249.7L571.8 250.7L556.8 538.4Z" fill="#e3e4e4" stroke="#6cf9f9"></path><path d="M1179.5 7721.3L1160.5 7429.6L913.2 7679.3Z" fill="#bdbdbd" stroke="#6cf9f9"></path><path d="M1798.3 7694.3L1742.3 8000L2053.7 7707.3Z" fill="#cccdcd" stroke="#6cf9f9"></path><path d="M2043.7 0L2092.7 249.7L2397.1 0Z" fill="#ebecec" stroke="#6cf9f9"></path><path d="M2092.7 249.7L1796.3 0L1801.3 316.7Z" fill="#dcdcdc" stroke="#6cf9f9"></path><path d="M855.2 249.7L559.8 0L571.8 250.7Z" fill="#dcdcdc" stroke="#6cf9f9"></path><path d="M2395.1 270.7L2656.5 320.7L2671.5 0Z" fill="#d4d4d4" stroke="#6cf9f9"></path><path d="M1796.3 0L1477.9 0L1801.3 316.7Z" fill="#afafaf" stroke="#6cf9f9"></path><path d="M2671.5 0L2656.5 320.7L2959.8 317.7Z" fill="#a0a0a0" stroke="#6cf9f9"></path><path d="M2337.1 7683.3L2629.5 7710.3L2646.5 7425.6Z" fill="#a7a7a7" stroke="#6cf9f9"></path><path d="M3274.2 7423.6L3560.6 7420.6L3566.6 7160.9Z" fill="#a7a7a7" stroke="#6cf9f9"></path><path d="M2354.1 8000L2629.5 7710.3L2337.1 7683.3Z" fill="#b6b6b6" stroke="#6cf9f9"></path><path d="M2928.8 7744.3L2629.5 7710.3L2686.5 8000Z" fill="#c5c5c5" stroke="#6cf9f9"></path><path d="M3840 542.4L3521.6 307.7L3568.6 594.4Z" fill="#bdbdbd" stroke="#6cf9f9"></path><path d="M2948.8 0L2671.5 0L2959.8 317.7Z" fill="#a0a0a0" stroke="#6cf9f9"></path><path d="M3533.6 7698.3L3560.6 7420.6L3274.2 7423.6Z" fill="#c5c5c5" stroke="#6cf9f9"></path><path d="M913.2 7679.3L1160.5 7429.6L916.2 7445.6Z" fill="#b6b6b6" stroke="#6cf9f9"></path><path d="M1456.9 7711.3L1742.3 8000L1798.3 7694.3Z" fill="#afafaf" stroke="#6cf9f9"></path><path d="M0 7393.6L274.4 7444.6L287.4 7161.9Z" fill="#a0a0a0" stroke="#6cf9f9"></path><path d="M614.8 7680.3L913.2 7679.3L916.2 7445.6Z" fill="#c5c5c5" stroke="#6cf9f9"></path><path d="M614.8 7680.3L916.2 7445.6L573.8 7453.6Z" fill="#afafaf" stroke="#6cf9f9"></path><path d="M1477.9 0L1198.5 0L1460.9 308.7Z" fill="#a0a0a0" stroke="#6cf9f9"></path><path d="M2948.8 0L2959.8 317.7L3245.2 260.7Z" fill="#c5c5c5" stroke="#6cf9f9"></path><path d="M559.8 0L299.4 258.7L571.8 250.7Z" fill="#cccdcd" stroke="#6cf9f9"></path><path d="M571.8 250.7L299.4 258.7L556.8 538.4Z" fill="#bdbdbd" stroke="#6cf9f9"></path><path d="M1198.5 0L916.2 0L1150.5 317.7Z" fill="#b6b6b6" stroke="#6cf9f9"></path><path d="M2094.7 8000L2337.1 7683.3L2053.7 7707.3Z" fill="#e3e4e4" stroke="#6cf9f9"></path><path d="M2629.5 7710.3L2928.8 7744.3L2932.8 7427.6Z" fill="#d4d4d4" stroke="#6cf9f9"></path><path d="M0 7151.9L0 7393.6L287.4 7161.9Z" fill="#bdbdbd" stroke="#6cf9f9"></path><path d="M302.4 7718.3L614.8 7680.3L573.8 7453.6Z" fill="#a7a7a7" stroke="#6cf9f9"></path><path d="M3221.2 0L2948.8 0L3245.2 260.7Z" fill="#cccdcd" stroke="#6cf9f9"></path><path d="M302.4 7718.3L573.8 7453.6L274.4 7444.6Z" fill="#a0a0a0" stroke="#6cf9f9"></path><path d="M1488.9 8000L1456.9 7711.3L1179.5 7721.3Z" fill="#bdbdbd" stroke="#6cf9f9"></path><path d="M2928.8 7744.3L3240.2 7680.3L2932.8 7427.6Z" fill="#dcdcdc" stroke="#6cf9f9"></path><path d="M3560.6 7420.6L3840 7430.6L3840 7176.9Z" fill="#dcdcdc" stroke="#6cf9f9"></path><path d="M3840 7689.3L3840 7430.6L3560.6 7420.6Z" fill="#a7a7a7" stroke="#6cf9f9"></path><path d="M3840 542.4L3840 275.7L3521.6 307.7Z" fill="#cccdcd" stroke="#6cf9f9"></path><path d="M3574.6 0L3221.2 0L3245.2 260.7Z" fill="#a7a7a7" stroke="#6cf9f9"></path><path d="M265.4 0L0 261.7L299.4 258.7Z" fill="#afafaf" stroke="#6cf9f9"></path><path d="M299.4 258.7L0 261.7L310.4 561.4Z" fill="#e3e4e4" stroke="#6cf9f9"></path><path d="M3574.6 0L3245.2 260.7L3521.6 307.7Z" fill="#a7a7a7" stroke="#6cf9f9"></path><path d="M916.2 0L559.8 0L855.2 249.7Z" fill="#dcdcdc" stroke="#6cf9f9"></path><path d="M1488.9 8000L1179.5 7721.3L1158.5 8000Z" fill="#b6b6b6" stroke="#6cf9f9"></path><path d="M1488.9 8000L1742.3 8000L1456.9 7711.3Z" fill="#c5c5c5" stroke="#6cf9f9"></path><path d="M3247.2 8000L3533.6 7698.3L3240.2 7680.3Z" fill="#a0a0a0" stroke="#6cf9f9"></path><path d="M1742.3 8000L2094.7 8000L2053.7 7707.3Z" fill="#cccdcd" stroke="#6cf9f9"></path><path d="M1158.5 8000L1179.5 7721.3L889.2 8000Z" fill="#a0a0a0" stroke="#6cf9f9"></path><path d="M2094.7 8000L2354.1 8000L2337.1 7683.3Z" fill="#afafaf" stroke="#6cf9f9"></path><path d="M3247.2 8000L3240.2 7680.3L2928.8 7744.3Z" fill="#b6b6b6" stroke="#6cf9f9"></path><path d="M3240.2 7680.3L3533.6 7698.3L3274.2 7423.6Z" fill="#afafaf" stroke="#6cf9f9"></path><path d="M0 7726.3L302.4 7718.3L274.4 7444.6Z" fill="#a0a0a0" stroke="#6cf9f9"></path><path d="M889.2 8000L1179.5 7721.3L913.2 7679.3Z" fill="#e3e4e4" stroke="#6cf9f9"></path><path d="M889.2 8000L913.2 7679.3L614.8 7680.3Z" fill="#c5c5c5" stroke="#6cf9f9"></path><path d="M2354.1 8000L2686.5 8000L2629.5 7710.3Z" fill="#ebecec" stroke="#6cf9f9"></path><path d="M559.8 0L265.4 0L299.4 258.7Z" fill="#d4d4d4" stroke="#6cf9f9"></path><path d="M3840 275.7L3574.6 0L3521.6 307.7Z" fill="#a0a0a0" stroke="#6cf9f9"></path><path d="M2686.5 8000L2925.8 8000L2928.8 7744.3Z" fill="#cccdcd" stroke="#6cf9f9"></path><path d="M597.8 8000L889.2 8000L614.8 7680.3Z" fill="#dcdcdc" stroke="#6cf9f9"></path><path d="M3533.6 7698.3L3840 7689.3L3560.6 7420.6Z" fill="#a7a7a7" stroke="#6cf9f9"></path><path d="M3840 8000L3840 7689.3L3533.6 7698.3Z" fill="#c5c5c5" stroke="#6cf9f9"></path><path d="M0 7393.6L0 7726.3L274.4 7444.6Z" fill="#c5c5c5" stroke="#6cf9f9"></path><path d="M302.4 7718.3L597.8 8000L614.8 7680.3Z" fill="#d4d4d4" stroke="#6cf9f9"></path><path d="M265.4 0L0 0L0 261.7Z" fill="#bdbdbd" stroke="#6cf9f9"></path><path d="M3840 275.7L3840 0L3574.6 0Z" fill="#c5c5c5" stroke="#6cf9f9"></path><path d="M269.4 8000L597.8 8000L302.4 7718.3Z" fill="#c5c5c5" stroke="#6cf9f9"></path><path d="M2925.8 8000L3247.2 8000L2928.8 7744.3Z" fill="#ebecec" stroke="#6cf9f9"></path><path d="M3247.2 8000L3513.6 8000L3533.6 7698.3Z" fill="#dcdcdc" stroke="#6cf9f9"></path><path d="M0 7726.3L269.4 8000L302.4 7718.3Z" fill="#afafaf" stroke="#6cf9f9"></path><path d="M0 7726.3L0 8000L269.4 8000Z" fill="#b6b6b6" stroke="#6cf9f9"></path><path d="M3513.6 8000L3840 8000L3533.6 7698.3Z" fill="#c5c5c5" stroke="#6cf9f9"></path></g></svg>