<svg id="visual" viewBox="0 0 3840 2160" width="3840" height="2160" xmlns="http://www.w3.org/2000/svg" xmlns:xlink="http://www.w3.org/1999/xlink" version="1.1"><g stroke-width="1" stroke-linejoin="bevel"><path d="M2097.3 1047L2093.3 713L1699.7 1067Z" fill="#ebecec" stroke="#6cf9f9"></path><path d="M2093.3 713L1697.7 683L1699.7 1067Z" fill="#ebecec" stroke="#6cf9f9"></path><path d="M2093.3 713L1740.7 342L1697.7 683Z" fill="#bdbdbd" stroke="#6cf9f9"></path><path d="M2525 730L2156.3 367L2093.3 713Z" fill="#ebecec" stroke="#6cf9f9"></path><path d="M2093.3 713L2156.3 367L1740.7 342Z" fill="#d4d4d4" stroke="#6cf9f9"></path><path d="M1295 1073L1694.7 1461L1699.7 1067Z" fill="#dcdcdc" stroke="#6cf9f9"></path><path d="M1699.7 1067L2114.3 1452L2097.3 1047Z" fill="#ebecec" stroke="#6cf9f9"></path><path d="M1694.7 1461L2114.3 1452L1699.7 1067Z" fill="#dcdcdc" stroke="#6cf9f9"></path><path d="M2097.3 1047L2525 730L2093.3 713Z" fill="#b6b6b6" stroke="#6cf9f9"></path><path d="M1254 752L1699.7 1067L1697.7 683Z" fill="#dcdcdc" stroke="#6cf9f9"></path><path d="M1254 752L1295 1073L1699.7 1067Z" fill="#e3e4e4" stroke="#6cf9f9"></path><path d="M1280 396L1254 752L1697.7 683Z" fill="#d4d4d4" stroke="#6cf9f9"></path><path d="M2575 1064L2525 730L2097.3 1047Z" fill="#b6b6b6" stroke="#6cf9f9"></path><path d="M2114.3 1452L2575 1064L2097.3 1047Z" fill="#afafaf" stroke="#6cf9f9"></path><path d="M1740.7 342L1280 396L1697.7 683Z" fill="#d4d4d4" stroke="#6cf9f9"></path><path d="M2525 730L2552 341L2156.3 367Z" fill="#cccdcd" stroke="#6cf9f9"></path><path d="M2158.3 0L1728.7 0L1740.7 342Z" fill="#bdbdbd" stroke="#6cf9f9"></path><path d="M2991.7 396L2552 341L2525 730Z" fill="#ebecec" stroke="#6cf9f9"></path><path d="M1295 1073L1252 1473L1694.7 1461Z" fill="#b6b6b6" stroke="#6cf9f9"></path><path d="M1694.7 1461L2095.3 1766L2114.3 1452Z" fill="#c5c5c5" stroke="#6cf9f9"></path><path d="M866.3 1073L1252 1473L1295 1073Z" fill="#c5c5c5" stroke="#6cf9f9"></path><path d="M2114.3 1452L2593 1403L2575 1064Z" fill="#a0a0a0" stroke="#6cf9f9"></path><path d="M2575 1064L3002.7 755L2525 730Z" fill="#a7a7a7" stroke="#6cf9f9"></path><path d="M2158.3 0L1740.7 342L2156.3 367Z" fill="#cccdcd" stroke="#6cf9f9"></path><path d="M1740.7 342L1270 0L1280 396Z" fill="#ebecec" stroke="#6cf9f9"></path><path d="M1674.7 1836L2095.3 1766L1694.7 1461Z" fill="#d4d4d4" stroke="#6cf9f9"></path><path d="M2114.3 1452L2566 1785L2593 1403Z" fill="#d4d4d4" stroke="#6cf9f9"></path><path d="M2525 0L2158.3 0L2156.3 367Z" fill="#b6b6b6" stroke="#6cf9f9"></path><path d="M1295 1764L1674.7 1836L1694.7 1461Z" fill="#ebecec" stroke="#6cf9f9"></path><path d="M814.3 750L866.3 1073L1254 752Z" fill="#cccdcd" stroke="#6cf9f9"></path><path d="M1254 752L866.3 1073L1295 1073Z" fill="#c5c5c5" stroke="#6cf9f9"></path><path d="M854.3 1808L1295 1764L1252 1473Z" fill="#a0a0a0" stroke="#6cf9f9"></path><path d="M1252 1473L1295 1764L1694.7 1461Z" fill="#d4d4d4" stroke="#6cf9f9"></path><path d="M1728.7 0L1270 0L1740.7 342Z" fill="#d4d4d4" stroke="#6cf9f9"></path><path d="M885.3 337L814.3 750L1254 752Z" fill="#e3e4e4" stroke="#6cf9f9"></path><path d="M885.3 337L1254 752L1280 396Z" fill="#afafaf" stroke="#6cf9f9"></path><path d="M2552 341L2525 0L2156.3 367Z" fill="#a0a0a0" stroke="#6cf9f9"></path><path d="M3005.7 1114L3002.7 755L2575 1064Z" fill="#cccdcd" stroke="#6cf9f9"></path><path d="M2552 341L2978.7 0L2525 0Z" fill="#b6b6b6" stroke="#6cf9f9"></path><path d="M2095.3 1766L2566 1785L2114.3 1452Z" fill="#ebecec" stroke="#6cf9f9"></path><path d="M2593 1403L3005.7 1114L2575 1064Z" fill="#e3e4e4" stroke="#6cf9f9"></path><path d="M2107.3 2160L2566 1785L2095.3 1766Z" fill="#ebecec" stroke="#6cf9f9"></path><path d="M2974.7 1419L3005.7 1114L2593 1403Z" fill="#e3e4e4" stroke="#6cf9f9"></path><path d="M1270 0L885.3 337L1280 396Z" fill="#d4d4d4" stroke="#6cf9f9"></path><path d="M3002.7 755L2991.7 396L2525 730Z" fill="#dcdcdc" stroke="#6cf9f9"></path><path d="M2566 1785L2974.7 1419L2593 1403Z" fill="#ebecec" stroke="#6cf9f9"></path><path d="M449.7 1439L813.3 1445L866.3 1073Z" fill="#a0a0a0" stroke="#6cf9f9"></path><path d="M866.3 1073L813.3 1445L1252 1473Z" fill="#d4d4d4" stroke="#6cf9f9"></path><path d="M1294 2160L1685.7 2160L1674.7 1836Z" fill="#e3e4e4" stroke="#6cf9f9"></path><path d="M1674.7 1836L2107.3 2160L2095.3 1766Z" fill="#bdbdbd" stroke="#6cf9f9"></path><path d="M1294 2160L1674.7 1836L1295 1764Z" fill="#dcdcdc" stroke="#6cf9f9"></path><path d="M1685.7 2160L2107.3 2160L1674.7 1836Z" fill="#e3e4e4" stroke="#6cf9f9"></path><path d="M1270 0L863.3 0L885.3 337Z" fill="#cccdcd" stroke="#6cf9f9"></path><path d="M446.7 326L433.7 718L814.3 750Z" fill="#a7a7a7" stroke="#6cf9f9"></path><path d="M813.3 1445L854.3 1808L1252 1473Z" fill="#a0a0a0" stroke="#6cf9f9"></path><path d="M2991.7 396L2978.7 0L2552 341Z" fill="#cccdcd" stroke="#6cf9f9"></path><path d="M854.3 1808L1294 2160L1295 1764Z" fill="#a7a7a7" stroke="#6cf9f9"></path><path d="M2107.3 2160L2552 2160L2566 1785Z" fill="#a0a0a0" stroke="#6cf9f9"></path><path d="M2566 1785L3017.7 1782L2974.7 1419Z" fill="#bdbdbd" stroke="#6cf9f9"></path><path d="M3016.7 2160L3017.7 1782L2566 1785Z" fill="#bdbdbd" stroke="#6cf9f9"></path><path d="M2974.7 1419L3376.3 1081L3005.7 1114Z" fill="#d4d4d4" stroke="#6cf9f9"></path><path d="M3005.7 1114L3376.3 1081L3002.7 755Z" fill="#dcdcdc" stroke="#6cf9f9"></path><path d="M446.7 326L814.3 750L885.3 337Z" fill="#bdbdbd" stroke="#6cf9f9"></path><path d="M814.3 750L391.7 1066L866.3 1073Z" fill="#bdbdbd" stroke="#6cf9f9"></path><path d="M813.3 1445L449.7 1439L854.3 1808Z" fill="#a7a7a7" stroke="#6cf9f9"></path><path d="M3445.3 1441L3376.3 1081L2974.7 1419Z" fill="#a7a7a7" stroke="#6cf9f9"></path><path d="M3002.7 755L3398.3 757L2991.7 396Z" fill="#d4d4d4" stroke="#6cf9f9"></path><path d="M2991.7 396L3425.3 326L2978.7 0Z" fill="#bdbdbd" stroke="#6cf9f9"></path><path d="M433.7 718L391.7 1066L814.3 750Z" fill="#cccdcd" stroke="#6cf9f9"></path><path d="M3376.3 1081L3398.3 757L3002.7 755Z" fill="#c5c5c5" stroke="#6cf9f9"></path><path d="M391.7 1066L449.7 1439L866.3 1073Z" fill="#ebecec" stroke="#6cf9f9"></path><path d="M863.3 0L446.7 326L885.3 337Z" fill="#a0a0a0" stroke="#6cf9f9"></path><path d="M433.7 718L0 737L391.7 1066Z" fill="#ebecec" stroke="#6cf9f9"></path><path d="M3398.3 757L3425.3 326L2991.7 396Z" fill="#a0a0a0" stroke="#6cf9f9"></path><path d="M3409.3 1828L3445.3 1441L3017.7 1782Z" fill="#a7a7a7" stroke="#6cf9f9"></path><path d="M3017.7 1782L3445.3 1441L2974.7 1419Z" fill="#c5c5c5" stroke="#6cf9f9"></path><path d="M3840 1040L3840 737L3398.3 757Z" fill="#ebecec" stroke="#6cf9f9"></path><path d="M3398.3 757L3840 384L3425.3 326Z" fill="#b6b6b6" stroke="#6cf9f9"></path><path d="M453.7 2160L832.3 2160L854.3 1808Z" fill="#afafaf" stroke="#6cf9f9"></path><path d="M854.3 1808L832.3 2160L1294 2160Z" fill="#e3e4e4" stroke="#6cf9f9"></path><path d="M2552 2160L3016.7 2160L2566 1785Z" fill="#e3e4e4" stroke="#6cf9f9"></path><path d="M863.3 0L425.7 0L446.7 326Z" fill="#c5c5c5" stroke="#6cf9f9"></path><path d="M0 398L0 737L433.7 718Z" fill="#b6b6b6" stroke="#6cf9f9"></path><path d="M0 1447L400.7 1831L449.7 1439Z" fill="#c5c5c5" stroke="#6cf9f9"></path><path d="M449.7 1439L400.7 1831L854.3 1808Z" fill="#a7a7a7" stroke="#6cf9f9"></path><path d="M3840 0L3437.3 0L3425.3 326Z" fill="#e3e4e4" stroke="#6cf9f9"></path><path d="M3425.3 326L3437.3 0L2978.7 0Z" fill="#bdbdbd" stroke="#6cf9f9"></path><path d="M3016.7 2160L3409.3 1828L3017.7 1782Z" fill="#d4d4d4" stroke="#6cf9f9"></path><path d="M0 398L433.7 718L446.7 326Z" fill="#e3e4e4" stroke="#6cf9f9"></path><path d="M391.7 1066L0 1447L449.7 1439Z" fill="#dcdcdc" stroke="#6cf9f9"></path><path d="M0 737L0 1108L391.7 1066Z" fill="#ebecec" stroke="#6cf9f9"></path><path d="M400.7 1831L453.7 2160L854.3 1808Z" fill="#dcdcdc" stroke="#6cf9f9"></path><path d="M0 2160L453.7 2160L400.7 1831Z" fill="#a0a0a0" stroke="#6cf9f9"></path><path d="M0 0L0 398L446.7 326Z" fill="#a7a7a7" stroke="#6cf9f9"></path><path d="M3840 1040L3376.3 1081L3445.3 1441Z" fill="#a7a7a7" stroke="#6cf9f9"></path><path d="M3840 1040L3398.3 757L3376.3 1081Z" fill="#b6b6b6" stroke="#6cf9f9"></path><path d="M3840 1441L3840 1040L3445.3 1441Z" fill="#e3e4e4" stroke="#6cf9f9"></path><path d="M0 1108L0 1447L391.7 1066Z" fill="#ebecec" stroke="#6cf9f9"></path><path d="M3016.7 2160L3401.3 2160L3409.3 1828Z" fill="#b6b6b6" stroke="#6cf9f9"></path><path d="M3840 1764L3840 1441L3445.3 1441Z" fill="#a7a7a7" stroke="#6cf9f9"></path><path d="M3840 737L3840 384L3398.3 757Z" fill="#b6b6b6" stroke="#6cf9f9"></path><path d="M3840 1764L3445.3 1441L3409.3 1828Z" fill="#afafaf" stroke="#6cf9f9"></path><path d="M425.7 0L0 0L446.7 326Z" fill="#e3e4e4" stroke="#6cf9f9"></path><path d="M0 1447L0 1827L400.7 1831Z" fill="#c5c5c5" stroke="#6cf9f9"></path><path d="M3840 2160L3840 1764L3409.3 1828Z" fill="#dcdcdc" stroke="#6cf9f9"></path><path d="M3840 384L3840 0L3425.3 326Z" fill="#a7a7a7" stroke="#6cf9f9"></path><path d="M0 1827L0 2160L400.7 1831Z" fill="#e3e4e4" stroke="#6cf9f9"></path><path d="M3401.3 2160L3840 2160L3409.3 1828Z" fill="#dcdcdc" stroke="#6cf9f9"></path></g></svg>