<svg id="visual" viewBox="0 0 3840 8000" width="3840" height="8000" xmlns="http://www.w3.org/2000/svg" xmlns:xlink="http://www.w3.org/1999/xlink" version="1.1"><rect width="3840" height="8000" fill="#d7d7d7"></rect><g><g transform="translate(455 3156)"><path d="M0 -323.9L280.5 -162L280.5 162L0 323.9L-280.5 162L-280.5 -162Z" fill="#c9c9c9"></path></g><g transform="translate(3557 1250)"><path d="M0 -252L218.2 -126L218.2 126L0 252L-218.2 126L-218.2 -126Z" fill="#c9c9c9"></path></g><g transform="translate(84 319)"><path d="M0 -120L103.9 -60L103.9 60L0 120L-103.9 60L-103.9 -60Z" fill="#c9c9c9"></path></g><g transform="translate(2547 366)"><path d="M0 -127L110 -63.5L110 63.5L0 127L-110 63.5L-110 -63.5Z" fill="#c9c9c9"></path></g><g transform="translate(2497 6119)"><path d="M0 -315L272.8 -157.5L272.8 157.5L0 315L-272.8 157.5L-272.8 -157.5Z" fill="#c9c9c9"></path></g><g transform="translate(3372 3879)"><path d="M0 -68L58.9 -34L58.9 34L0 68L-58.9 34L-58.9 -34Z" fill="#c9c9c9"></path></g><g transform="translate(3737 2643)"><path d="M0 -235L203.5 -117.5L203.5 117.5L0 235L-203.5 117.5L-203.5 -117.5Z" fill="#c9c9c9"></path></g><g transform="translate(1818 7484)"><path d="M0 -130L112.6 -65L112.6 65L0 130L-112.6 65L-112.6 -65Z" fill="#c9c9c9"></path></g><g transform="translate(1687 1261)"><path d="M0 -254L220 -127L220 127L0 254L-220 127L-220 -127Z" fill="#c9c9c9"></path></g><g transform="translate(679 5531)"><path d="M0 -233L201.8 -116.5L201.8 116.5L0 233L-201.8 116.5L-201.8 -116.5Z" fill="#c9c9c9"></path></g><g transform="translate(1389 6055)"><path d="M0 -162L140.3 -81L140.3 81L0 162L-140.3 81L-140.3 -81Z" fill="#c9c9c9"></path></g><g transform="translate(789 398)"><path d="M0 -234L202.6 -117L202.6 117L0 234L-202.6 117L-202.6 -117Z" fill="#c9c9c9"></path></g><g transform="translate(3072 1768)"><path d="M0 -319L276.3 -159.5L276.3 159.5L0 319L-276.3 159.5L-276.3 -159.5Z" fill="#c9c9c9"></path></g><g transform="translate(2906 5317)"><path d="M0 -64L55.4 -32L55.4 32L0 64L-55.4 32L-55.4 -32Z" fill="#c9c9c9"></path></g><g transform="translate(2457 1446)"><path d="M0 -292L252.9 -146L252.9 146L0 292L-252.9 146L-252.9 -146Z" fill="#c9c9c9"></path></g><g transform="translate(1149 1959)"><path d="M0 -163L141.2 -81.5L141.2 81.5L0 163L-141.2 81.5L-141.2 -81.5Z" fill="#c9c9c9"></path></g><g transform="translate(3702 7482)"><path d="M0 -166L143.8 -83L143.8 83L0 166L-143.8 83L-143.8 -83Z" fill="#c9c9c9"></path></g><g transform="translate(1208 3137)"><path d="M0 -174L150.7 -87L150.7 87L0 174L-150.7 87L-150.7 -87Z" fill="#c9c9c9"></path></g><g transform="translate(3782 188)"><path d="M0 -263L227.8 -131.5L227.8 131.5L0 263L-227.8 131.5L-227.8 -131.5Z" fill="#c9c9c9"></path></g><g transform="translate(970 6632)"><path d="M0 -42L36.4 -21L36.4 21L0 42L-36.4 21L-36.4 -21Z" fill="#c9c9c9"></path></g><g transform="translate(3155 7039)"><path d="M0 -126L109.1 -63L109.1 63L0 126L-109.1 63L-109.1 -63Z" fill="#c9c9c9"></path></g><g transform="translate(3682 4781)"><path d="M0 -258L223.4 -129L223.4 129L0 258L-223.4 129L-223.4 -129Z" fill="#c9c9c9"></path></g><g transform="translate(743 7786)"><path d="M0 -191L165.4 -95.5L165.4 95.5L0 191L-165.4 95.5L-165.4 -95.5Z" fill="#c9c9c9"></path></g><g transform="translate(3187 6198)"><path d="M0 -114L98.7 -57L98.7 57L0 114L-98.7 57L-98.7 -57Z" fill="#c9c9c9"></path></g><g transform="translate(355 2295)"><path d="M0 -101L87.5 -50.5L87.5 50.5L0 101L-87.5 50.5L-87.5 -50.5Z" fill="#c9c9c9"></path></g><g transform="translate(246 6268)"><path d="M0 -144L124.7 -72L124.7 72L0 144L-124.7 72L-124.7 -72Z" fill="#c9c9c9"></path></g><g transform="translate(230 1621)"><path d="M0 -60L52 -30L52 30L0 60L-52 30L-52 -30Z" fill="#c9c9c9"></path></g><g transform="translate(1468 160)"><path d="M0 -249L215.6 -124.5L215.6 124.5L0 249L-215.6 124.5L-215.6 -124.5Z" fill="#c9c9c9"></path></g><g transform="translate(2206 4208)"><path d="M0 -76L65.8 -38L65.8 38L0 76L-65.8 38L-65.8 -38Z" fill="#c9c9c9"></path></g><g transform="translate(951 4817)"><path d="M0 -54L46.8 -27L46.8 27L0 54L-46.8 27L-46.8 -27Z" fill="#c9c9c9"></path></g><g transform="translate(3551 5631)"><path d="M0 -265L229.5 -132.5L229.5 132.5L0 265L-229.5 132.5L-229.5 -132.5Z" fill="#c9c9c9"></path></g><g transform="translate(1656 3673)"><path d="M0 -240L207.8 -120L207.8 120L0 240L-207.8 120L-207.8 -120Z" fill="#c9c9c9"></path></g><g transform="translate(1696 5335)"><path d="M0 -228L197.5 -114L197.5 114L0 228L-197.5 114L-197.5 -114Z" fill="#c9c9c9"></path></g><g transform="translate(676 3831)"><path d="M0 -157L136 -78.5L136 78.5L0 157L-136 78.5L-136 -78.5Z" fill="#c9c9c9"></path></g><g transform="translate(2426 3351)"><path d="M0 -63L54.6 -31.5L54.6 31.5L0 63L-54.6 31.5L-54.6 -31.5Z" fill="#c9c9c9"></path></g><g transform="translate(2418 2113)"><path d="M0 -134L116 -67L116 67L0 134L-116 67L-116 -67Z" fill="#c9c9c9"></path></g><g transform="translate(2783 7789)"><path d="M0 -233L201.8 -116.5L201.8 116.5L0 233L-201.8 116.5L-201.8 -116.5Z" fill="#c9c9c9"></path></g><g transform="translate(1337 4285)"><path d="M0 -308L266.7 -154L266.7 154L0 308L-266.7 154L-266.7 -154Z" fill="#c9c9c9"></path></g><g transform="translate(3828 3371)"><path d="M0 -108L93.5 -54L93.5 54L0 108L-93.5 54L-93.5 -54Z" fill="#c9c9c9"></path></g><g transform="translate(1736 2674)"><path d="M0 -233L201.8 -116.5L201.8 116.5L0 233L-201.8 116.5L-201.8 -116.5Z" fill="#c9c9c9"></path></g><g transform="translate(540 7138)"><path d="M0 -314L271.9 -157L271.9 157L0 314L-271.9 157L-271.9 -157Z" fill="#c9c9c9"></path></g><g transform="translate(920 1114)"><path d="M0 -225L194.9 -112.5L194.9 112.5L0 225L-194.9 112.5L-194.9 -112.5Z" fill="#c9c9c9"></path></g><g transform="translate(1920 6827)"><path d="M0 -80L69.3 -40L69.3 40L0 80L-69.3 40L-69.3 -40Z" fill="#c9c9c9"></path></g><g transform="translate(3101 3151)"><path d="M0 -68L58.9 -34L58.9 34L0 68L-58.9 34L-58.9 -34Z" fill="#c9c9c9"></path></g><g transform="translate(3764 6589)"><path d="M0 -154L133.4 -77L133.4 77L0 154L-133.4 77L-133.4 -77Z" fill="#c9c9c9"></path></g><g transform="translate(3041 4642)"><path d="M0 -50L43.3 -25L43.3 25L0 50L-43.3 25L-43.3 -25Z" fill="#c9c9c9"></path></g><g transform="translate(3128 751)"><path d="M0 -181L156.8 -90.5L156.8 90.5L0 181L-156.8 90.5L-156.8 -90.5Z" fill="#c9c9c9"></path></g><g transform="translate(87 988)"><path d="M0 -83L71.9 -41.5L71.9 41.5L0 83L-71.9 41.5L-71.9 -41.5Z" fill="#c9c9c9"></path></g><g transform="translate(1393 7987)"><path d="M0 -190L164.5 -95L164.5 95L0 190L-164.5 95L-164.5 -95Z" fill="#c9c9c9"></path></g><g transform="translate(32 4463)"><path d="M0 -263L227.8 -131.5L227.8 131.5L0 263L-227.8 131.5L-227.8 -131.5Z" fill="#c9c9c9"></path></g><g transform="translate(25 5648)"><path d="M0 -96L83.1 -48L83.1 48L0 96L-83.1 48L-83.1 -48Z" fill="#c9c9c9"></path></g><g transform="translate(3104 2449)"><path d="M0 -199L172.3 -99.5L172.3 99.5L0 199L-172.3 99.5L-172.3 -99.5Z" fill="#c9c9c9"></path></g><g transform="translate(16 7780)"><path d="M0 -76L65.8 -38L65.8 38L0 76L-65.8 38L-65.8 -38Z" fill="#c9c9c9"></path></g><g transform="translate(2234 4967)"><path d="M0 -184L159.3 -92L159.3 92L0 184L-159.3 92L-159.3 -92Z" fill="#c9c9c9"></path></g><g transform="translate(3122 51)"><path d="M0 -214L185.3 -107L185.3 107L0 214L-185.3 107L-185.3 -107Z" fill="#c9c9c9"></path></g><g transform="translate(3737 1973)"><path d="M0 -316L273.7 -158L273.7 158L0 316L-273.7 158L-273.7 -158Z" fill="#c9c9c9"></path></g></g></svg>