<svg id="visual" viewBox="0 0 3840 8000" width="3840" height="8000" xmlns="http://www.w3.org/2000/svg" xmlns:xlink="http://www.w3.org/1999/xlink" version="1.1"><rect width="3840" height="8000" fill="#d7d7d7"></rect><g><g transform="translate(448 482)"><path d="M0 -323.9L280.5 -162L280.5 162L0 323.9L-280.5 162L-280.5 -162Z" fill="none" stroke="#c9c9c9" stroke-width="7"></path></g><g transform="translate(2510 3273)"><path d="M0 -78L67.5 -39L67.5 39L0 78L-67.5 39L-67.5 -39Z" fill="none" stroke="#c9c9c9" stroke-width="7"></path></g><g transform="translate(1638 5145)"><path d="M0 -262L226.9 -131L226.9 131L0 262L-226.9 131L-226.9 -131Z" fill="none" stroke="#c9c9c9" stroke-width="7"></path></g><g transform="translate(2454 4638)"><path d="M0 -259L224.3 -129.5L224.3 129.5L0 259L-224.3 129.5L-224.3 -129.5Z" fill="none" stroke="#c9c9c9" stroke-width="7"></path></g><g transform="translate(2216 28)"><path d="M0 -284L246 -142L246 142L0 284L-246 142L-246 -142Z" fill="none" stroke="#c9c9c9" stroke-width="7"></path></g><g transform="translate(297 3972)"><path d="M0 -143L123.8 -71.5L123.8 71.5L0 143L-123.8 71.5L-123.8 -71.5Z" fill="none" stroke="#c9c9c9" stroke-width="7"></path></g><g transform="translate(3765 7611)"><path d="M0 -203L175.8 -101.5L175.8 101.5L0 203L-175.8 101.5L-175.8 -101.5Z" fill="none" stroke="#c9c9c9" stroke-width="7"></path></g><g transform="translate(618 6825)"><path d="M0 -263L227.8 -131.5L227.8 131.5L0 263L-227.8 131.5L-227.8 -131.5Z" fill="none" stroke="#c9c9c9" stroke-width="7"></path></g><g transform="translate(1479 7066)"><path d="M0 -270L233.8 -135L233.8 135L0 270L-233.8 135L-233.8 -135Z" fill="none" stroke="#c9c9c9" stroke-width="7"></path></g><g transform="translate(3734 6565)"><path d="M0 -315L272.8 -157.5L272.8 157.5L0 315L-272.8 157.5L-272.8 -157.5Z" fill="none" stroke="#c9c9c9" stroke-width="7"></path></g><g transform="translate(3413 1341)"><path d="M0 -121L104.8 -60.5L104.8 60.5L0 121L-104.8 60.5L-104.8 -60.5Z" fill="none" stroke="#c9c9c9" stroke-width="7"></path></g><g transform="translate(1141 4421)"><path d="M0 -192L166.3 -96L166.3 96L0 192L-166.3 96L-166.3 -96Z" fill="none" stroke="#c9c9c9" stroke-width="7"></path></g><g transform="translate(3398 4173)"><path d="M0 -229L198.3 -114.5L198.3 114.5L0 229L-198.3 114.5L-198.3 -114.5Z" fill="none" stroke="#c9c9c9" stroke-width="7"></path></g><g transform="translate(82 5377)"><path d="M0 -60L52 -30L52 30L0 60L-52 30L-52 -30Z" fill="none" stroke="#c9c9c9" stroke-width="7"></path></g><g transform="translate(2015 7838)"><path d="M0 -301L260.7 -150.5L260.7 150.5L0 301L-260.7 150.5L-260.7 -150.5Z" fill="none" stroke="#c9c9c9" stroke-width="7"></path></g><g transform="translate(1866 4199)"><path d="M0 -149L129 -74.5L129 74.5L0 149L-129 74.5L-129 -74.5Z" fill="none" stroke="#c9c9c9" stroke-width="7"></path></g><g transform="translate(2727 7738)"><path d="M0 -101L87.5 -50.5L87.5 50.5L0 101L-87.5 50.5L-87.5 -50.5Z" fill="none" stroke="#c9c9c9" stroke-width="7"></path></g><g transform="translate(1326 3304)"><path d="M0 -282L244.2 -141L244.2 141L0 282L-244.2 141L-244.2 -141Z" fill="none" stroke="#c9c9c9" stroke-width="7"></path></g><g transform="translate(1509 5974)"><path d="M0 -268L232.1 -134L232.1 134L0 268L-232.1 134L-232.1 -134Z" fill="none" stroke="#c9c9c9" stroke-width="7"></path></g><g transform="translate(2887 1929)"><path d="M0 -180L155.9 -90L155.9 90L0 180L-155.9 90L-155.9 -90Z" fill="none" stroke="#c9c9c9" stroke-width="7"></path></g><g transform="translate(791 2051)"><path d="M0 -182L157.6 -91L157.6 91L0 182L-157.6 91L-157.6 -91Z" fill="none" stroke="#c9c9c9" stroke-width="7"></path></g><g transform="translate(1614 672)"><path d="M0 -172L149 -86L149 86L0 172L-149 86L-149 -86Z" fill="none" stroke="#c9c9c9" stroke-width="7"></path></g><g transform="translate(1161 1297)"><path d="M0 -113L97.9 -56.5L97.9 56.5L0 113L-97.9 56.5L-97.9 -56.5Z" fill="none" stroke="#c9c9c9" stroke-width="7"></path></g><g transform="translate(2934 6059)"><path d="M0 -246L213 -123L213 123L0 246L-213 123L-213 -123Z" fill="none" stroke="#c9c9c9" stroke-width="7"></path></g><g transform="translate(2456 1106)"><path d="M0 -126L109.1 -63L109.1 63L0 126L-109.1 63L-109.1 -63Z" fill="none" stroke="#c9c9c9" stroke-width="7"></path></g><g transform="translate(283 3223)"><path d="M0 -223L193.1 -111.5L193.1 111.5L0 223L-193.1 111.5L-193.1 -111.5Z" fill="none" stroke="#c9c9c9" stroke-width="7"></path></g><g transform="translate(2467 7040)"><path d="M0 -167L144.6 -83.5L144.6 83.5L0 167L-144.6 83.5L-144.6 -83.5Z" fill="none" stroke="#c9c9c9" stroke-width="7"></path></g><g transform="translate(265 1460)"><path d="M0 -149L129 -74.5L129 74.5L0 149L-129 74.5L-129 -74.5Z" fill="none" stroke="#c9c9c9" stroke-width="7"></path></g><g transform="translate(3391 2647)"><path d="M0 -76L65.8 -38L65.8 38L0 76L-65.8 38L-65.8 -38Z" fill="none" stroke="#c9c9c9" stroke-width="7"></path></g><g transform="translate(3783 5818)"><path d="M0 -174L150.7 -87L150.7 87L0 174L-150.7 87L-150.7 -87Z" fill="none" stroke="#c9c9c9" stroke-width="7"></path></g><g transform="translate(78 4676)"><path d="M0 -251L217.4 -125.5L217.4 125.5L0 251L-217.4 125.5L-217.4 -125.5Z" fill="none" stroke="#c9c9c9" stroke-width="7"></path></g><g transform="translate(2241 2489)"><path d="M0 -45L39 -22.5L39 22.5L0 45L-39 22.5L-39 -22.5Z" fill="none" stroke="#c9c9c9" stroke-width="7"></path></g><g transform="translate(868 5193)"><path d="M0 -80L69.3 -40L69.3 40L0 80L-69.3 40L-69.3 -40Z" fill="none" stroke="#c9c9c9" stroke-width="7"></path></g><g transform="translate(3025 143)"><path d="M0 -57L49.4 -28.5L49.4 28.5L0 57L-49.4 28.5L-49.4 -28.5Z" fill="none" stroke="#c9c9c9" stroke-width="7"></path></g><g transform="translate(2207 5887)"><path d="M0 -291L252 -145.5L252 145.5L0 291L-252 145.5L-252 -145.5Z" fill="none" stroke="#c9c9c9" stroke-width="7"></path></g><g transform="translate(63 7802)"><path d="M0 -72L62.4 -36L62.4 36L0 72L-62.4 36L-62.4 -36Z" fill="none" stroke="#c9c9c9" stroke-width="7"></path></g><g transform="translate(2609 5327)"><path d="M0 -251L217.4 -125.5L217.4 125.5L0 251L-217.4 125.5L-217.4 -125.5Z" fill="none" stroke="#c9c9c9" stroke-width="7"></path></g><g transform="translate(585 5890)"><path d="M0 -313L271.1 -156.5L271.1 156.5L0 313L-271.1 156.5L-271.1 -156.5Z" fill="none" stroke="#c9c9c9" stroke-width="7"></path></g><g transform="translate(1319 2624)"><path d="M0 -91L78.8 -45.5L78.8 45.5L0 91L-78.8 45.5L-78.8 -45.5Z" fill="none" stroke="#c9c9c9" stroke-width="7"></path></g><g transform="translate(3554 3513)"><path d="M0 -286L247.7 -143L247.7 143L0 286L-247.7 143L-247.7 -143Z" fill="none" stroke="#c9c9c9" stroke-width="7"></path></g><g transform="translate(1687 2011)"><path d="M0 -291L252 -145.5L252 145.5L0 291L-252 145.5L-252 -145.5Z" fill="none" stroke="#c9c9c9" stroke-width="7"></path></g><g transform="translate(2805 3885)"><path d="M0 -201L174.1 -100.5L174.1 100.5L0 201L-174.1 100.5L-174.1 -100.5Z" fill="none" stroke="#c9c9c9" stroke-width="7"></path></g><g transform="translate(139 2374)"><path d="M0 -58L50.2 -29L50.2 29L0 58L-50.2 29L-50.2 -29Z" fill="none" stroke="#c9c9c9" stroke-width="7"></path></g><g transform="translate(3619 5004)"><path d="M0 -130L112.6 -65L112.6 65L0 130L-112.6 65L-112.6 -65Z" fill="none" stroke="#c9c9c9" stroke-width="7"></path></g><g transform="translate(1177 29)"><path d="M0 -322L278.9 -161L278.9 161L0 322L-278.9 161L-278.9 -161Z" fill="none" stroke="#c9c9c9" stroke-width="7"></path></g><g transform="translate(3191 7213)"><path d="M0 -182L157.6 -91L157.6 91L0 182L-157.6 91L-157.6 -91Z" fill="none" stroke="#c9c9c9" stroke-width="7"></path></g><g transform="translate(960 7645)"><path d="M0 -176L152.4 -88L152.4 88L0 176L-152.4 88L-152.4 -88Z" fill="none" stroke="#c9c9c9" stroke-width="7"></path></g><g transform="translate(3618 519)"><path d="M0 -152L131.6 -76L131.6 76L0 152L-131.6 76L-131.6 -76Z" fill="none" stroke="#c9c9c9" stroke-width="7"></path></g><g transform="translate(3706 2014)"><path d="M0 -210L181.9 -105L181.9 105L0 210L-181.9 105L-181.9 -105Z" fill="none" stroke="#c9c9c9" stroke-width="7"></path></g><g transform="translate(85 6313)"><path d="M0 -99L85.7 -49.5L85.7 49.5L0 99L-85.7 49.5L-85.7 -49.5Z" fill="none" stroke="#c9c9c9" stroke-width="7"></path></g><g transform="translate(1899 6495)"><path d="M0 -320L277.1 -160L277.1 160L0 320L-277.1 160L-277.1 -160Z" fill="none" stroke="#c9c9c9" stroke-width="7"></path></g><g transform="translate(1812 1337)"><path d="M0 -101L87.5 -50.5L87.5 50.5L0 101L-87.5 50.5L-87.5 -50.5Z" fill="none" stroke="#c9c9c9" stroke-width="7"></path></g></g></svg>