<svg id="visual" viewBox="0 0 3840 2160" width="3840" height="2160" xmlns="http://www.w3.org/2000/svg" xmlns:xlink="http://www.w3.org/1999/xlink" version="1.1"><rect width="3840" height="2160" fill="#eeeeee"></rect><g><g transform="translate(2335 1461)"><path d="M0 -496.1L429.6 -248.1L429.6 248.1L0 496.1L-429.6 248.1L-429.6 -248.1Z" fill="#cacaca"></path></g><g transform="translate(419 508)"><path d="M0 -201L174.1 -100.5L174.1 100.5L0 201L-174.1 100.5L-174.1 -100.5Z" fill="#cacaca"></path></g><g transform="translate(2843 3)"><path d="M0 -445L385.4 -222.5L385.4 222.5L0 445L-385.4 222.5L-385.4 -222.5Z" fill="#cacaca"></path></g><g transform="translate(1620 223)"><path d="M0 -483L418.3 -241.5L418.3 241.5L0 483L-418.3 241.5L-418.3 -241.5Z" fill="#cacaca"></path></g><g transform="translate(3458 900)"><path d="M0 -394L341.2 -197L341.2 197L0 394L-341.2 197L-341.2 -197Z" fill="#cacaca"></path></g><g transform="translate(1314 1379)"><path d="M0 -83L71.9 -41.5L71.9 41.5L0 83L-71.9 41.5L-71.9 -41.5Z" fill="#cacaca"></path></g><g transform="translate(251 1521)"><path d="M0 -270L233.8 -135L233.8 135L0 270L-233.8 135L-233.8 -135Z" fill="#cacaca"></path></g></g></svg>